<svg width="345" height="245" xmlns="http://www.w3.org/2000/svg" xmlns:xlink="http://www.w3.org/1999/xlink"><svg viewBox="-1 -1 60 60" width="60" height="60" x="284.48" xmlns="http://www.w3.org/2000/svg"><path d="M53 3.293H5c-2.722 0-5 2.278-5 5v33c0 2.722 2.278 5 5 5h27.681l-4.439-5.161a1 1 0 1 1 1.517-1.304l4.998 5.811L43 54.707v-8.414h10c2.722 0 5-2.278 5-5v-33c0-2.722-2.278-5-5-5z" fill="#26b99a"/></svg><svg data-name="Layer 1" width="66" height="66" viewBox="-1 -1 66 66" x="190.38" y="128.09" xmlns="http://www.w3.org/2000/svg"><path d="M.72.08A.67.67 0 0 0 0 .8v46.48a.72.72 0 0 0 .72.72H48l16 16V.72a.67.67 0 0 0-.72-.72H.8z" fill="#2f5572"/></svg><svg viewBox="-1 -1 73.68 66" width="73.68" height="66" x="160.77" y="62.09" xmlns="http://www.w3.org/2000/svg"><path fill="#48c1e1" d="M8.513 6.452h7.249v4.837H8.513z"/><path d="M17.257 5.92a.723.723 0 0 1-.721.72H7.739a.723.723 0 0 1-.721-.72V.72c0-.396.324-.721.72-.721h8.797c.397 0 .721.325.721.721z" fill="#046699"/><path d="M10.025 5.92V.72c0-.396.325-.721.721-.721H7.74a.723.723 0 0 0-.721.721v5.2c0 .397.324.721.72.721h3.008a.723.723 0 0 1-.72-.72z" opacity=".1"/><path d="M6.266 45.662a.14.14 0 0 0 .068-.198.631.631 0 0 1-.09-.31c0-.772 1.712-1.598 4.261-1.598.82 0 1.62.091 2.311.264a.14.14 0 0 0 .17-.17 25.85 25.85 0 0 1-.76-5.465l-.002-.065a26.655 26.655 0 0 1-.013-.8c0-.324.262-.586.585-.586h1.264a.14.14 0 0 0 .14-.156 4.475 4.475 0 0 1 3.109-4.775.14.14 0 0 0 .083-.194 4.233 4.233 0 0 1-.355-1.105 4.242 4.242 0 0 1 2.4-4.57.14.14 0 0 0 .074-.174 4.237 4.237 0 0 1 1.259-4.655v-6.013c0-2.214-1.807-4.025-4.016-4.025H7.52c-2.209 0-4.016 1.811-4.016 4.025v32.24a10.462 10.462 0 0 1 2.762-1.67z" fill="#a2dff9"/><path d="M17.308 31.803a.14.14 0 0 0 .084-.194 4.233 4.233 0 0 1-.355-1.105 4.242 4.242 0 0 1 2.401-4.57.14.14 0 0 0 .073-.174 4.237 4.237 0 0 1 1.259-4.655v-2.708H3.504v14.897h11.638a4.475 4.475 0 0 1 2.166-1.491z" fill="#046699"/><path d="M7.84 43.917V15.092c0-2.214 1.807-4.025 4.016-4.025H7.52c-2.209 0-4.016 1.811-4.016 4.025v32.24a10.466 10.466 0 0 1 2.762-1.67.14.14 0 0 0 .068-.198.631.631 0 0 1-.09-.31c0-.453.592-.925 1.596-1.237z" opacity=".1"/><path d="M33.957 22.514c.04.234.061.476.062.72a.14.14 0 0 0 .128.14 4.228 4.228 0 0 1 3.729 3.177.14.14 0 0 0 .231.068 4.432 4.432 0 0 1 2.628-1.184.14.14 0 0 0 .127-.134 7.687 7.687 0 0 1 2.248-5.199l.089-.085a9.645 9.645 0 0 0-2.707-5.336.755.755 0 0 0-1.069 0l-6.146 6.16c.336.49.573 1.055.68 1.673z" fill="#ef5050"/><path d="M37.874 26.55a.14.14 0 0 0 .231.067 4.477 4.477 0 0 1 1.187-.797 1.046 1.046 0 0 0-.262-.44l-1.019-1.021a1.05 1.05 0 0 0-1.485-.002l-.008.01a4.218 4.218 0 0 1 1.356 2.182zm2.184-3.109h-1.442a1.05 1.05 0 0 1-1.05-1.05 1.05 1.05 0 0 1 1.05-1.05h1.442a1.05 1.05 0 0 1 1.05 1.05c0 .58-.47 1.05-1.05 1.05zm-1.645-2.9a1.05 1.05 0 0 1-.744-1.792l1.02-1.022a1.05 1.05 0 0 1 1.487 1.483l-1.02 1.022a1.047 1.047 0 0 1-.743.308z" fill="#c0272d"/><path d="M51.579 18.4a.245.245 0 0 0-.14-.14 7.811 7.811 0 0 0-8.428 1.743 7.848 7.848 0 0 0-2.292 5.434 4.494 4.494 0 0 1 4.842 3.608 7.813 7.813 0 0 0 4.28-2.197 7.855 7.855 0 0 0 1.738-8.448z" fill="#89c947"/><path d="M47.806 22.041a1.05 1.05 0 0 0-1.485.002l-3.632 3.641c.686.25 1.294.663 1.777 1.192l3.342-3.35a1.05 1.05 0 0 0-.002-1.484z" fill="#d5e962"/><path d="M53.085 30.424a3.835 3.835 0 0 1 .055.648.14.14 0 0 0 .128.139 3.78 3.78 0 0 1 1.61.523.14.14 0 0 0 .177-.028 7.011 7.011 0 0 1 .323-.348 7.012 7.012 0 0 1 2.98-1.781 4.644 4.644 0 0 0 .162-1.214 4.63 4.63 0 0 0-4.624-4.635 4.628 4.628 0 0 0-4.494 3.542 3.797 3.797 0 0 1 3.683 3.154zM21.393 36.63a7.216 7.216 0 0 1-.879-2.68 4.218 4.218 0 0 1-3.116-2.324 4.634 4.634 0 0 0-3.37 4.46c0 .185.015.365.036.544h7.33z" fill="#ffc502"/><path d="M56.688 34.354c.135.78.027 1.566-.31 2.279h5.942a7.213 7.213 0 0 0 .83-6.844.23.23 0 0 0-.128-.13 7.174 7.174 0 0 0-8.161 2.065 3.805 3.805 0 0 1 1.827 2.63z" fill="#89c947"/><path d="M56.377 36.633h1.3l2.07-2.076a1.05 1.05 0 1 0-1.487-1.483l-1.537 1.542a3.772 3.772 0 0 1-.345 2.017z" fill="#d5e962"/><path d="M38.037 26.632a4.37 4.37 0 0 0-3.878-3.398 4.373 4.373 0 0 0-5.125-4.302 4.375 4.375 0 0 0-2.904 1.9 4.38 4.38 0 0 0-6.75 4.975 4.37 4.37 0 1 0 1.13 8.287 7.056 7.056 0 0 1 .43-3.618.089.089 0 0 1 .05-.05 7.024 7.024 0 0 1 2.606-.5 6.995 6.995 0 0 1 5.263 2.367 9.648 9.648 0 0 1-.113-1.472c0-.34.276-.617.615-.617h7.332a4.626 4.626 0 0 1 1.344-3.572z" fill="#368c0e"/><path d="M22.702 27.04h-.018a1.05 1.05 0 0 1-1.033-1.068 3.34 3.34 0 0 1 3.335-3.277h.054a3.342 3.342 0 0 1 2.406 1.084 1.05 1.05 0 0 1-1.55 1.417 1.218 1.218 0 0 0-.89-.4 1.235 1.235 0 0 0-1.255 1.212 1.05 1.05 0 0 1-1.05 1.032zm5.796 1.807a1.05 1.05 0 0 1-.984-1.416 3.065 3.065 0 0 1 3.929-1.806 3.066 3.066 0 0 1 1.753 1.67 1.05 1.05 0 0 1-.556 1.378 1.05 1.05 0 0 1-1.377-.556.946.946 0 0 0-.547-.522.961.961 0 0 0-1.233.567 1.05 1.05 0 0 1-.985.685z" fill="#89c947"/><path d="M45.636 30.193h-.039v.03h1.406c.417 0 .756.338.756.756 0 2.11-.681 4.061-1.829 5.654h10.598a3.925 3.925 0 0 0 .298-2.303 3.948 3.948 0 0 0-3.544-3.257 3.95 3.95 0 0 0-4.63-3.885 3.952 3.952 0 0 0-2.622 1.716 3.965 3.965 0 0 0-.6-.368 4.488 4.488 0 0 1 .206 1.657z" fill="#368c0e"/><path d="M45.774 30.204a4.63 4.63 0 0 0-4.614-4.93 4.63 4.63 0 0 0-4.613 4.93z" fill="#f7931e"/><path d="M28.68 31.897a7.174 7.174 0 0 0-7.741-1.6.236.236 0 0 0-.129.128 7.214 7.214 0 0 0 .425 6.208h9.532a9.662 9.662 0 0 1-1.85-4.486 7.197 7.197 0 0 0-.237-.25z" fill="#89c947"/><path d="M25.65 36.633h2.966L25.7 33.71a1.05 1.05 0 0 0-1.487 1.483z" fill="#d5e962"/><path d="M46.001 36.633a9.65 9.65 0 0 0 1.942-5.812.756.756 0 0 0-.755-.757H29.36a.756.756 0 0 0-.755.757c0 2.18.725 4.191 1.942 5.812z" fill="#ef5050"/><path d="M39.361 36.63v-.726a1.05 1.05 0 0 0-1.05-1.05 1.05 1.05 0 0 0-1.05 1.05v.727zm2.014 0h1.633a1.05 1.05 0 0 0-.07-1.406l-1.019-1.021a1.05 1.05 0 0 0-1.484-.002 1.05 1.05 0 0 0-.002 1.485zm-6.294 0l.943-.944a1.05 1.05 0 0 0-1.487-1.483l-1.02 1.021a1.05 1.05 0 0 0-.07 1.407zm-1.614-2.83h-1.442a1.05 1.05 0 0 1-1.05-1.05 1.05 1.05 0 0 1 1.05-1.05h1.442a1.05 1.05 0 0 1 0 2.1zm11.054 0h-1.442a1.05 1.05 0 0 1 0-2.1h1.442a1.05 1.05 0 0 1 0 2.1z" fill="#c0272d"/><path d="M13.018 43.873a.142.142 0 0 0 .123-.023.14.14 0 0 0 .055-.112v-1.777a.911.911 0 0 1 1.82 0v1.777a.14.14 0 0 0 .178.135c.736-.207 1.605-.317 2.512-.317 2.55 0 4.262.826 4.262 1.598 0 .1-.03.204-.09.31a.14.14 0 0 0 .068.198c3.263 1.345 5.575 4.199 6.035 7.447a.14.14 0 0 0 .188.111l22.104-8.397a3.764 3.764 0 0 1 3.168.233 3.719 3.719 0 0 1 1.847 2.574l.192 1.04a.14.14 0 0 0 .21.094l7.43-4.387a25.98 25.98 0 0 0 .963-7.058c0-.4-.324-.726-.724-.726H12.796c-.4 0-.725.325-.725.726 0 2.233.277 4.412.82 6.521.042.011.085.021.127.033z" fill="#e6e9ed"/><path d="M13.018 43.873a.142.142 0 0 0 .123-.023.14.14 0 0 0 .055-.112v-1.777a.911.911 0 0 1 1.82 0v1.777a.14.14 0 0 0 .178.135 9.113 9.113 0 0 1 2.124-.31 26.146 26.146 0 0 1-.748-6.244c0-.4.324-.726.724-.726h-4.498c-.4 0-.725.325-.725.726 0 2.233.277 4.412.82 6.52l.127.034z" opacity=".1"/><path d="M14.106 44.373a4.87 4.87 0 0 1 1.05-.417v-1.995a1.05 1.05 0 1 0-2.1 0v1.995c.406.115.762.255 1.05.417z" fill="#89c947"/><path d="M24.833 63.858l-3.793.002h-.001a3.739 3.739 0 0 1-3.68-3.05l-.038-.202a3.725 3.725 0 0 1 2.347-4.158l8.472-3.218c-.436-3.49-2.895-6.412-6.272-7.753-.328.55-1.456 1.03-2.925 1.202a.14.14 0 1 0-.071.248c.761.61 1.24 1.252 1.28 1.718a.53.53 0 0 1-.128.42c-.178.201-.53.308-1.015.308-.945 0-2.224-.395-3.42-1.057a8.625 8.625 0 0 1-1.393-.948.14.14 0 0 0-.18 0 8.604 8.604 0 0 1-1.394.948c-1.196.662-2.474 1.057-3.42 1.057-.485 0-.836-.107-1.015-.308a.53.53 0 0 1-.127-.42c.04-.466.518-1.108 1.28-1.717a.14.14 0 0 0-.072-.249c-1.47-.173-2.598-.652-2.925-1.203C2.613 46.959 0 50.37 0 54.345 0 59.677 4.702 64 10.501 64h14.56c.157 0 .036-.056-.228-.142z" fill="#ef5050"/><path d="M4.543 54.345c0-3.167 1.659-5.978 4.221-7.739-1.22-.213-2.132-.642-2.42-1.128C2.611 46.959 0 50.371 0 54.345 0 59.677 4.702 64 10.501 64h4.543c-5.8 0-10.5-4.323-10.5-9.655z" opacity=".1"/><path d="M22.108 45.154c0-.96-1.97-1.738-4.401-1.738-1.49 0-2.805.292-3.601.74-.796-.448-2.112-.74-3.601-.74-2.43 0-4.401.778-4.401 1.738 0 .788 1.328 1.452 3.147 1.666-1.113.89-1.623 1.827-1.169 2.34.601.678 2.664.356 4.607-.72a8.775 8.775 0 0 0 1.416-.964 8.8 8.8 0 0 0 1.416.964c1.944 1.076 4.007 1.398 4.608.72.453-.513-.056-1.45-1.17-2.34 1.821-.214 3.149-.878 3.149-1.666z" fill="#368c0e"/><path d="M71.667 51.371l-.282-1.52a.97.97 0 0 0-1.13-.776l-10.883 2 6.948-4.646a.967.967 0 0 0 .305-1.277l-.786-1.392a.973.973 0 0 0-1.341-.358l-9.04 5.336 1.71 9.232 10.369 1.863a.973.973 0 0 0 1.132-.81l.234-1.572a.969.969 0 0 0-.742-1.084l-8.155-1.87 10.882-2a.967.967 0 0 0 .78-1.126z" fill="#89c947"/><path d="M17.22 60.834A3.879 3.879 0 0 0 21.04 64l32.757-.013a3.89 3.89 0 0 0 2.983-1.393 3.855 3.855 0 0 0 .834-3.175l-2.188-11.815a3.869 3.869 0 0 0-1.917-2.67 3.898 3.898 0 0 0-3.286-.242L19.618 56.32a3.865 3.865 0 0 0-2.435 4.314z" fill="#f7931e"/><path d="M17.22 60.834c.053.282.138.55.246.805a4.044 4.044 0 0 1 2.092-1.799L51.52 47.698a4.07 4.07 0 0 1 4.049.679l-.143-.773a3.869 3.869 0 0 0-1.917-2.67 3.898 3.898 0 0 0-3.286-.242L19.618 56.32a3.865 3.865 0 0 0-2.435 4.314z" opacity=".1"/><path d="M51.917 59.072a1.05 1.05 0 0 0-2.062.395l.864 4.518h2.138zm-5.691 1.245a1.05 1.05 0 0 0-2.064.39l.619 3.28h2.136zM40.66 52.41a1.05 1.05 0 0 0 1.018.794 1.05 1.05 0 0 0 1.019-1.307l-1-3.969-1.976.751zm-5.463 6.993a1.05 1.05 0 0 0-2.067.373l.76 4.217 2.134-.001zM24.605 57.44a1.05 1.05 0 1 0 2.055-.431l-.654-3.12-1.987.755z" fill="#ffc502"/></svg><svg viewBox="-1 -1 59 59" width="59" height="59" x="284.48" y="60" xmlns="http://www.w3.org/2000/svg"><path fill="#dcd6cd" d="M0 5.5v39h56v-39z"/><path d="M30.965 27.607c-1.637 1.462-4.292 1.462-5.93 0l-2.087-1.843C16.419 31.591 0 44.5 0 44.5h56S39.581 31.591 33.052 25.764l-2.087 1.843z" fill="#e8e3d9"/><path d="M0 5.5l25.035 22.107c1.637 1.462 4.292 1.462 5.93 0L56 5.5H0z" fill="#efebde"/><path d="M56.707 49.793l-6.797-6.797 6.483-3.241-17.637-6.498 6.499 17.637 3.241-6.484 6.797 6.797a.997.997 0 0 0 1.414 0 .999.999 0 0 0 0-1.414z" fill="#3d324c"/></svg><svg data-name="Layer 1" width="23.23" height="44.01" viewBox="-1 -1 23.23 44.01" x="234.45" y="62.09" xmlns="http://www.w3.org/2000/svg"><path d="M21.23.31V7H17.4a3.55 3.55 0 0 0-2.85.91 4.26 4.26 0 0 0-.74 2.72v4.77H21l-1 7.47h-6.19V42H6.27V22.85H0v-7.47h6.27V9.85q0-4.69 2.55-7.28A9 9 0 0 1 15.63 0a39.57 39.57 0 0 1 5.6.31z" fill="#fff"/></svg><svg viewBox="-1 -1 74.75 66" width="74.75" height="66" x="86.02" y="62.09" xmlns="http://www.w3.org/2000/svg"><path d="M54.975 41.495c-6.352 11.594-17.762 19.694-30.72 22.294l-.98.213-1.152-.554C9.633 53.43 1.875 39.108.3 23.421a55.36 55.36 0 0 1-.3-5.968v-2.557c0-4.434 1.96-8.568 5.328-11.424C8.696.616 13.172-.535 17.605.232c6.181 1.066 11.126 6.181 12.063 12.404.597 3.837-.34 7.716-2.557 10.785-.341.554-.768 1.066-1.193 1.535 2.088 2.131 3.452 5.158 3.836 8.525a17.21 17.21 0 0 1-.938 7.503c4.561-.597 9.108-2.388 12.646-5.414z" fill="#ffcebf"/><path d="M41.461 35.57l13.514 5.925c-6.352 11.594-17.762 19.694-30.72 22.294l-.98.213-1.152-.554C9.633 53.43 1.875 39.108.3 23.421h26.81c-.341.554-.768 1.066-1.193 1.535 2.088 2.131 3.452 5.158 3.836 8.525a17.21 17.21 0 0 1-.938 7.503c4.561-.597 9.108-2.388 12.645-5.414z" fill="#ffb99c"/><path d="M53.568 4.24c-10.571 0-19.182 8.61-19.182 19.181 0 10.572 8.61 19.182 19.182 19.182s19.182-8.61 19.182-19.182c0-10.571-8.61-19.182-19.182-19.182z" fill="#61729b"/><path d="M72.75 23.421c0 10.572-8.61 19.182-19.182 19.182s-19.182-8.61-19.182-19.182zM47.54 14.38l4.52 4.52-3.013 3.015-4.52-4.521z" fill="#47568c"/><path fill="#2c3b73" d="M58.089 24.928l4.52 4.52-3.013 3.014-4.521-4.52zm-9.042 0l3.014 3.013-4.52 4.521-3.015-3.014z"/><path fill="#47568c" d="M59.595 14.379l3.014 3.014-4.52 4.52-3.014-3.013z"/><path d="M53.568 17.027a6.385 6.385 0 0 0-6.394 6.394c0 3.538 2.856 6.394 6.394 6.394s6.394-2.856 6.394-6.394a6.385 6.385 0 0 0-6.394-6.394z" fill="#47568c"/><path d="M59.962 23.421c0 3.538-2.856 6.394-6.394 6.394s-6.394-2.856-6.394-6.394z" fill="#2c3b73"/></svg><svg height="66" viewBox="-1 -1 50 50" width="66" x="124.38" y="128.09" xmlns="http://www.w3.org/2000/svg"><path d="M39.469 14.156l1.406-7.734L39.469 0H23.418l7.031 7.125-7.031 7.031zm0 0" fill="#ff7816"/><path d="M39.469 0h2.812v25.406H39.47zm0 0" fill="#6e6e6e"/><path d="M40.875 0h1.406v25.406h-1.406zm0 0" fill="#444"/><path d="M33.844 22.594v5.625h-11.25v5.625h-11.25v5.625H0V48h48V22.594zm0 0" fill="#ffd400"/><path d="M40.875 22.594H48V48h-7.125zm0 0" fill="#fdbf00"/></svg><svg viewBox="-1.2 -1 62.38 66" width="62.38" height="66" y="128.09" xmlns="http://www.w3.org/2000/svg"><path d="M29.989 10.868c-10.671 0-19.321 8.65-19.321 19.32 0 8.561 5.573 15.809 13.283 18.346v11.843h2.415V64h7.245v-3.623h2.415V48.534c7.71-2.537 13.283-9.785 13.283-18.345 0-10.67-8.65-19.321-19.32-19.321zM29.99 0a1.208 1.208 0 0 0-1.208 1.208v4.83a1.208 1.208 0 1 0 2.415 0v-4.83A1.208 1.208 0 0 0 29.989 0zm28.98 28.981h-4.83a1.208 1.208 0 1 0 0 2.415h4.83a1.208 1.208 0 1 0 0-2.415zm-53.132 0h-4.83a1.208 1.208 0 1 0 0 2.415h4.83a1.208 1.208 0 1 0 0-2.415zm43.79-20.14l-3.414 3.416a1.207 1.207 0 1 0 1.707 1.707l3.415-3.415a1.207 1.207 0 1 0-1.707-1.707zm-37.57 37.573l-3.415 3.415a1.207 1.207 0 1 0 1.707 1.708l3.415-3.415a1.207 1.207 0 1 0-1.707-1.708zm35.864 0a1.207 1.207 0 1 0-1.707 1.708l3.415 3.415a1.204 1.204 0 0 0 1.707 0 1.206 1.206 0 0 0 0-1.708zM10.35 8.842a1.207 1.207 0 1 0-1.707 1.707l3.415 3.415a1.204 1.204 0 0 0 1.707 0 1.206 1.206 0 0 0 0-1.707z" fill="#efce4a"/><path d="M16.706 31.396c-.668 0-1.208-.54-1.208-1.207 0-7.99 6.5-14.49 14.49-14.49a1.206 1.206 0 1 1 0 2.414c-6.658 0-12.075 5.417-12.075 12.076 0 .667-.54 1.207-1.207 1.207z" fill="#f7e6a1"/><path fill="#556080" d="M33.611 60.377h2.415v-8.452H23.951v8.452h2.415V64h7.245z"/></svg><svg data-name="Layer 1" width="44.01" height="44.01" viewBox="-1 -1 44.01 44.01" x="284.48" y="163.06" xmlns="http://www.w3.org/2000/svg"><path d="M37.25 35.49V17.77h-3.69a11.77 11.77 0 0 1 .57 3.58 12.12 12.12 0 0 1-1.75 6.36 12.76 12.76 0 0 1-4.76 4.59 13.13 13.13 0 0 1-6.56 1.7 12.78 12.78 0 0 1-9.19-3.71 12 12 0 0 1-3.83-9 11.77 11.77 0 0 1 .49-3.56H4.68v17.76a1.63 1.63 0 0 0 1.6 1.67h29.3a1.63 1.63 0 0 0 1.17-.47 1.59 1.59 0 0 0 .5-1.2zm-7.77-14.57A7.75 7.75 0 0 0 27 15.14a8.28 8.28 0 0 0-6-2.4 8.25 8.25 0 0 0-5.91 2.39 7.75 7.75 0 0 0-2.47 5.78 7.75 7.75 0 0 0 2.47 5.79A8.25 8.25 0 0 0 21 29.1a8.28 8.28 0 0 0 6-2.4 7.75 7.75 0 0 0 2.48-5.78zm7.76-9.84V6.56a1.84 1.84 0 0 0-.54-1.31 1.8 1.8 0 0 0-1.31-.56h-4.78a1.8 1.8 0 0 0-1.31.56 1.84 1.84 0 0 0-.54 1.31v4.52A1.87 1.87 0 0 0 30.6 13h4.8a1.87 1.87 0 0 0 1.85-1.89zM42 5.39v31.23A5.41 5.41 0 0 1 36.62 42H5.39a5.19 5.19 0 0 1-3.8-1.59A5.19 5.19 0 0 1 0 36.62V5.39a5.19 5.19 0 0 1 1.59-3.8A5.19 5.19 0 0 1 5.39 0h31.23a5.19 5.19 0 0 1 3.8 1.59A5.19 5.19 0 0 1 42 5.39z" fill="#fff"/></svg><svg width="284.48" height="62.09" viewBox="-1 -1 76.74 17.9" xmlns="http://www.w3.org/2000/svg"><g font-weight="400" font-family="sans-serif" letter-spacing="0" word-spacing="0" fill="#e6e6e6" font-size="4.159" stroke-width=".104"><text style="line-height:1.25" x="44.687" y="40.536" transform="translate(-45.545 -33.804)"><tspan x="44.687" y="40.536" style="-inkscape-font-specification:'Segoe Script'" font-size="8.873" font-family="Segoe Script">Liliana Aguilar</tspan></text><text style="line-height:1.25" x="54.253" y="48.557" transform="translate(-45.545 -33.804)"><tspan x="54.253" y="48.557" font-size="5.545">Health Management</tspan></text></g></svg><svg data-name="Layer 1" width="66" height="50" viewBox="-1 -1 66 50" y="194.09" xmlns="http://www.w3.org/2000/svg"><path d="M0 0v8l32 16L64 8V0H0zm0 16v32h64V16L32 32z" fill="#2f5572"/></svg><svg viewBox="-1 -1 86.02 66" width="86.02" height="66" y="62.09" xmlns="http://www.w3.org/2000/svg"><path fill="#ff641a" d="M49.23 19.692l-12.795-6.824-21.666 9.286-4.923 19.692H49.23z"/><path d="M64.163 46.473v9.255L59.076 64h-4.923l-2.757-2.363L49.23 64h-4.923l-2.264-2.068L39.384 64h-4.923l-2.166-2.166L29.538 64h-2.462c-.836 0-1.674-.05-2.461-.148l-2.264-3.15-2.659 2.264C8.369 59.765 0 49.28 0 36.923v-17.23l4.923 2.46c0 9.01 8.467 16.197 19.692 17.132.837.05 1.625.1 2.461.1h32z" fill="#ffda2d"/><path d="M64.163 46.473v9.255L59.076 64h-4.923l-2.757-2.363L49.23 64h-4.923l-2.264-2.068L39.384 64h-4.923l-2.166-2.166L29.538 64h-2.462c-.836 0-1.674-.05-2.461-.148V39.285c.837.05 1.625.1 2.461.1h32z" fill="#fdbf00"/><path d="M49.23 19.692c0 11.028-10.83 19.692-24.615 19.692S0 30.72 0 19.692 10.83 0 24.615 0 49.23 8.665 49.23 19.692z" fill="#fdbf00"/><path d="M84.02 64H59.075V39.383h24.943z" fill="#d8d8fc"/><path fill="#47568c" d="M69.086 49.23h4.923v4.923h-4.923z"/><path fill="#ff641a" d="M49.23 49.23h4.923V64H49.23zm-9.846 4.923h4.923V64h-4.923zm-9.846-4.923h4.923V64h-4.923z"/><path d="M24.615 54.153v9.698c-1.674-.098-3.347-.443-4.923-.886v-8.812zm24.615-34.46c0 11.027-10.83 19.691-24.615 19.691V0C38.4 0 49.23 8.665 49.23 19.692z" fill="#ff9100"/><path d="M24.615 7.385c-9.649 0-17.23 5.415-17.23 12.307S14.965 32 24.614 32s17.23-5.416 17.23-12.308c0-6.892-7.581-12.307-17.23-12.307z" fill="#ffda2d"/><path d="M41.846 19.692C41.846 26.584 34.264 32 24.614 32V7.385c9.649 0 17.23 5.415 17.23 12.307z" fill="#fdbf00"/><path fill="#fdbf00" d="M17.23 17.23H32v4.924H17.23z"/><path fill="#ff9100" d="M24.615 17.23H32v4.924h-7.385z"/></svg><svg data-name="Layer 1" width="53.78" height="44.06" viewBox="-1 -1 53.78 44.06" x="284.48" y="119" xmlns="http://www.w3.org/2000/svg"><path d="M51.78 5a22.23 22.23 0 0 1-5.32 5.52v1.38a30.15 30.15 0 0 1-1.25 8.53 30.81 30.81 0 0 1-3.76 8.13 32.1 32.1 0 0 1-6.06 6.92 27 27 0 0 1-8.48 4.8 31 31 0 0 1-10.62 1.8A29.47 29.47 0 0 1 0 37.29a22.71 22.71 0 0 0 2.56.13 20.78 20.78 0 0 0 13.17-4.53 10.63 10.63 0 0 1-9.92-7.36 13.45 13.45 0 0 0 2 .16 11 11 0 0 0 2.79-.36 10.44 10.44 0 0 1-6.09-3.67 10.25 10.25 0 0 1-2.41-6.75v-.13a10.52 10.52 0 0 0 4.8 1.34 10.6 10.6 0 0 1-3.45-3.78 10.34 10.34 0 0 1-1.28-5.07 10.4 10.4 0 0 1 1.45-5.33 30.08 30.08 0 0 0 9.71 7.83A29.57 29.57 0 0 0 25.53 13a11.79 11.79 0 0 1-.26-2.43 10.23 10.23 0 0 1 3-7.48 10.64 10.64 0 0 1 15 0l.21.22A20.81 20.81 0 0 0 50.33.8a10.3 10.3 0 0 1-4.67 5.85A21.14 21.14 0 0 0 51.78 5z" fill="#fff"/></svg><svg data-name="Layer 1" width="62" height="66" viewBox="-1 -1 62 66" x="62.38" y="128.09" xmlns="http://www.w3.org/2000/svg"><path d="M29.88 0A55.39 55.39 0 0 0 0 8.72l4.22 6.48a47.32 47.32 0 0 1 25.66-7.28 47.31 47.31 0 0 1 25.9 7.28L60 8.72A55.53 55.53 0 0 0 29.88 0zm0 24a31.08 31.08 0 0 0-17 5l4.22 6.72A23.09 23.09 0 0 1 29.8 32a24.17 24.17 0 0 1 13 3.76L47 29a32.37 32.37 0 0 0-17.2-5h.07zm0 24a8 8 0 1 0 8 8 8 8 0 0 0-8-8z" fill="#d4953e"/></svg><svg data-name="Layer 1" width="36.75" height="44" viewBox="-1 -1 36.75 44" x="66" y="194.09" xmlns="http://www.w3.org/2000/svg"><path d="M22.13 29.15v5q0 1.57-.91 1.57a1.5 1.5 0 0 1-1.06-.52v-7.11a1.5 1.5 0 0 1 1.06-.54q.91 0 .91 1.6zm7.92 0v1.08h-2.1v-1.06q0-1.59 1.06-1.59t1 1.59zM7.42 24h2.5v-2.14h-7.3v2.2h2.46V37.4h2.34V24zm6.75 13.4h2.09V25.82h-2.09v8.86a1.86 1.86 0 0 1-1.31 1 .48.48 0 0 1-.49-.47 6.52 6.52 0 0 1 0-.82v-8.57h-2.14V35a5.79 5.79 0 0 0 .19 1.71 1.26 1.26 0 0 0 1.36.87 3.43 3.43 0 0 0 2.39-1.43v1.25zm10.05-3.47v-4.6A8.33 8.33 0 0 0 24 27a1.63 1.63 0 0 0-1.67-1.31A2.82 2.82 0 0 0 20.16 27v-5.1h-2.08v15.5h2.09v-1.13a2.91 2.91 0 0 0 2.18 1.31A1.62 1.62 0 0 0 24 36.27a8.61 8.61 0 0 0 .22-2.35zm7.92-.24v-.3H30a11.6 11.6 0 0 1 0 1.43.9.9 0 0 1-.94.85q-1.08 0-1.08-1.61V32h4.19v-2.41a4.65 4.65 0 0 0-.66-2.72 3.2 3.2 0 0 0-5 0 4.52 4.52 0 0 0-.66 2.72v4.05a4.4 4.4 0 0 0 .66 2.72 3 3 0 0 0 2.49 1.2 2.9 2.9 0 0 0 3-2.51 10.31 10.31 0 0 0 .09-1.36zM17.89 12.3V7.38q0-1.61-1-1.61t-1 1.61v4.92q0 1.64 1 1.64t1-1.64zm16.85 17.6a40.6 40.6 0 0 1-.61 8.2 4.45 4.45 0 0 1-1.36 2.32 4.1 4.1 0 0 1-2.39 1.08 125.31 125.31 0 0 1-13 .49 125.31 125.31 0 0 1-13-.49A4.15 4.15 0 0 1 2 40.42 4.28 4.28 0 0 1 .63 38.1 39.76 39.76 0 0 1 0 29.9a40.6 40.6 0 0 1 .61-8.2A4.45 4.45 0 0 1 2 19.37a4.25 4.25 0 0 1 2.41-1.1q4.29-.47 13-.47t13 .47a4.4 4.4 0 0 1 3.75 3.42 39.76 39.76 0 0 1 .58 8.21zM11.35 0h2.39l-2.83 9.35v6.35H8.57V9.35a39.68 39.68 0 0 0-1.43-5Q6.27 2 5.61 0H8.1l1.67 6.16zM20 7.8v4.1a4.59 4.59 0 0 1-.66 2.76 2.88 2.88 0 0 1-2.49 1.19 2.9 2.9 0 0 1-2.46-1.19 4.68 4.68 0 0 1-.66-2.76V7.8a4.59 4.59 0 0 1 .66-2.74 2.9 2.9 0 0 1 2.46-1.19 2.88 2.88 0 0 1 2.49 1.19A4.59 4.59 0 0 1 20 7.8zM27.87 4v11.7h-2.13v-1.27a3.37 3.37 0 0 1-2.41 1.45A1.31 1.31 0 0 1 22 15a6 6 0 0 1-.19-1.76V4h2.13v8.6a6.14 6.14 0 0 0 0 .82.49.49 0 0 0 .47.52 1.87 1.87 0 0 0 1.31-1V4h2.16z" fill="#fff"/></svg></svg>