<?xml version="1.0" encoding="iso-8859-1"?><!DOCTYPE svg PUBLIC "-//W3C//DTD SVG 1.1//EN" "http://www.w3.org/Graphics/SVG/1.1/DTD/svg11.dtd"><svg width="345" height="245" viewBox="0 0 345 245" xmlns="http://www.w3.org/2000/svg" xmlns:xlink="http://www.w3.org/1999/xlink"><svg viewBox="-1 -1 60 60" width="60" height="60" id="chat" x="284.48" xmlns="http://www.w3.org/2000/svg"><path d="M53 3.293H5c-2.722 0-5 2.278-5 5v33c0 2.722 2.278 5 5 5h27.681l-4.439-5.161a1 1 0 1 1 1.517-1.304l4.998 5.811L43 54.707v-8.414h10c2.722 0 5-2.278 5-5v-33c0-2.722-2.278-5-5-5z" fill="#26b99a"/></svg><svg id="comment" data-name="Layer 1" width="66" height="66" viewBox="-1 -1 66 66" x="190.38" y="128.09" xmlns="http://www.w3.org/2000/svg"><defs><style>.bcls-1{fill:#2f5572}</style></defs><title>comment</title><path class="bcls-1" d="M.72.08A.67.67 0 0 0 0 .8v46.48a.72.72 0 0 0 .72.72H48l16 16V.72a.67.67 0 0 0-.72-.72H.8z"/></svg><svg viewBox="-1 -1 73.68 66" width="73.68" height="66" id="diet" x="160.76999999999998" y="62.09" xmlns="http://www.w3.org/2000/svg"><path fill="#48c1e1" stroke-width=".14" d="M8.513 6.452h7.249v4.837H8.513z"/><path d="M17.257 5.92a.723.723 0 0 1-.721.72H7.739a.723.723 0 0 1-.721-.72V.72c0-.396.324-.721.72-.721h8.797c.397 0 .721.325.721.721z" fill="#046699" stroke-width=".14"/><path d="M10.025 5.92V.72c0-.396.325-.721.721-.721H7.74a.723.723 0 0 0-.721.721V5.92c0 .397.324.721.72.721h3.008a.723.723 0 0 1-.72-.72z" opacity=".1"/><path d="M6.266 45.662a.14.14 0 0 0 .068-.198.631.631 0 0 1-.09-.31c0-.772 1.712-1.598 4.261-1.598.82 0 1.62.091 2.311.264a.14.14 0 0 0 .17-.17 25.85 25.85 0 0 1-.76-5.465l-.002-.065a26.655 26.655 0 0 1-.013-.8c0-.324.262-.586.585-.586h1.264a.14.14 0 0 0 .14-.156 4.475 4.475 0 0 1 3.109-4.775.14.14 0 0 0 .083-.194 4.233 4.233 0 0 1-.355-1.105 4.242 4.242 0 0 1 2.4-4.57.14.14 0 0 0 .074-.174 4.237 4.237 0 0 1 1.259-4.655v-6.013c0-2.214-1.807-4.025-4.016-4.025H7.52c-2.209 0-4.016 1.811-4.016 4.025v32.24a10.462 10.462 0 0 1 2.762-1.67z" fill="#a2dff9" stroke-width=".14"/><path d="M17.308 31.803a.14.14 0 0 0 .084-.194 4.233 4.233 0 0 1-.355-1.105 4.242 4.242 0 0 1 2.401-4.57.14.14 0 0 0 .073-.174 4.237 4.237 0 0 1 1.259-4.655v-2.708H3.504v14.897h11.638a4.475 4.475 0 0 1 2.166-1.491z" fill="#046699" stroke-width=".14"/><path d="M7.84 43.917V15.092c0-2.214 1.807-4.025 4.016-4.025H7.52c-2.209 0-4.016 1.811-4.016 4.025v32.24a10.466 10.466 0 0 1 2.762-1.67.14.14 0 0 0 .068-.198.631.631 0 0 1-.09-.31c0-.453.592-.925 1.596-1.237z" opacity=".1" stroke-width=".14"/><path d="M33.957 22.514c.04.234.061.476.062.72a.14.14 0 0 0 .128.14 4.228 4.228 0 0 1 3.729 3.177.14.14 0 0 0 .231.068 4.432 4.432 0 0 1 2.628-1.184.14.14 0 0 0 .127-.134 7.687 7.687 0 0 1 2.248-5.199l.089-.085a9.645 9.645 0 0 0-2.707-5.336.755.755 0 0 0-1.069 0l-6.146 6.16c.336.49.573 1.055.68 1.673z" fill="#ef5050" stroke-width=".14"/><g transform="matrix(.14 0 0 .14 0 -3.842)" fill="#c0272d"><path d="M270.528 217.079a1 1 0 0 0 1.652.487 31.977 31.977 0 0 1 8.48-5.695 7.473 7.473 0 0 0-1.872-3.137l-7.281-7.299a7.5 7.5 0 0 0-10.606-.013c-.022.021-.039.044-.06.066a30.13 30.13 0 0 1 9.687 15.591zM286.125 194.879h-10.296a7.5 7.5 0 0 1-7.5-7.5 7.5 7.5 0 0 1 7.5-7.5h10.296a7.5 7.5 0 0 1 7.5 7.5c0 4.143-3.357 7.5-7.5 7.5zM274.376 174.159a7.501 7.501 0 0 1-5.309-12.798l7.284-7.298a7.5 7.5 0 0 1 10.617 10.597l-7.284 7.298a7.48 7.48 0 0 1-5.308 2.201z"/></g><path d="M51.579 18.4a.245.245 0 0 0-.14-.14 7.811 7.811 0 0 0-8.428 1.743 7.848 7.848 0 0 0-2.292 5.434 4.494 4.494 0 0 1 4.842 3.608 7.813 7.813 0 0 0 4.28-2.197 7.855 7.855 0 0 0 1.738-8.448z" fill="#89c947" stroke-width=".14"/><path d="M47.806 22.041a1.05 1.05 0 0 0-1.485.002l-3.632 3.641c.686.25 1.294.663 1.777 1.192l3.342-3.35a1.05 1.05 0 0 0-.002-1.484z" fill="#d5e962" stroke-width=".14"/><g transform="matrix(.14 0 0 .14 0 -3.842)" fill="#ffc502"><path d="M379.175 244.754a27.39 27.39 0 0 1 .396 4.629c.001.518.397.949.912.995 4.059.357 7.929 1.615 11.502 3.739a1 1 0 0 0 1.265-.202 50.08 50.08 0 0 1 2.304-2.489c6.036-6.05 13.335-10.368 21.294-12.722a33.174 33.174 0 0 0 1.152-8.669c0-18.283-14.788-33.106-33.031-33.106-15.558 0-28.597 10.785-32.099 25.3a27.12 27.12 0 0 1 26.305 22.525zM152.809 289.091a51.54 51.54 0 0 1-6.279-19.142 30.126 30.126 0 0 1-22.259-16.599c-13.884 3.918-24.065 16.694-24.065 31.862 0 1.314.1 2.604.249 3.878h52.354z"/></g><path d="M56.688 34.354c.135.78.027 1.566-.31 2.279h5.942a7.213 7.213 0 0 0 .83-6.844.23.23 0 0 0-.128-.13 7.174 7.174 0 0 0-8.161 2.065 3.805 3.805 0 0 1 1.827 2.63z" fill="#89c947" stroke-width=".14"/><path d="M56.377 36.633h1.3l2.07-2.076a1.05 1.05 0 1 0-1.487-1.483l-1.537 1.542a3.772 3.772 0 0 1-.345 2.017z" fill="#d5e962" stroke-width=".14"/><path d="M38.037 26.632a4.37 4.37 0 0 0-3.878-3.398 4.373 4.373 0 0 0-5.125-4.302 4.375 4.375 0 0 0-2.904 1.9 4.38 4.38 0 0 0-6.75 4.975 4.37 4.37 0 1 0 1.13 8.287 7.056 7.056 0 0 1 .43-3.618.089.089 0 0 1 .05-.05c.835-.332 1.712-.5 2.606-.5a6.995 6.995 0 0 1 5.263 2.367 9.648 9.648 0 0 1-.113-1.472c0-.34.276-.617.615-.617h7.332a4.626 4.626 0 0 1 1.344-3.572z" fill="#368c0e" stroke-width=".14"/><g transform="matrix(.14 0 0 .14 0 -3.842)" fill="#89c947"><path d="M162.155 220.587l-.13-.001a7.5 7.5 0 0 1-7.372-7.626c.22-12.985 10.87-23.408 23.82-23.408l.381.003a23.874 23.874 0 0 1 17.192 7.741 7.501 7.501 0 0 1-11.076 10.117 8.698 8.698 0 0 0-6.351-2.859c-4.875-.079-8.887 3.809-8.969 8.661a7.5 7.5 0 0 1-7.495 7.372zM203.559 233.492a7.5 7.5 0 0 1-7.031-10.11c4.184-11.279 16.771-17.067 28.063-12.902a21.899 21.899 0 0 1 12.521 11.933 7.5 7.5 0 0 1-3.969 9.836 7.5 7.5 0 0 1-9.836-3.969 6.754 6.754 0 0 0-3.91-3.728c-3.547-1.308-7.493.508-8.805 4.046a7.503 7.503 0 0 1-7.033 4.894z"/></g><path d="M45.636 30.193h-.039v.03h1.406c.417 0 .756.338.756.756 0 2.11-.681 4.061-1.829 5.654h10.598a3.925 3.925 0 0 0 .298-2.303 3.948 3.948 0 0 0-3.544-3.257 3.95 3.95 0 0 0-4.63-3.885 3.952 3.952 0 0 0-2.622 1.716 3.965 3.965 0 0 0-.6-.368 4.488 4.488 0 0 1 .206 1.657z" fill="#368c0e" stroke-width=".14"/><path d="M45.774 30.204a4.63 4.63 0 0 0-4.614-4.93 4.63 4.63 0 0 0-4.613 4.93z" fill="#f7931e" stroke-width=".14"/><path d="M28.68 31.897a7.174 7.174 0 0 0-7.741-1.6.236.236 0 0 0-.129.128 7.214 7.214 0 0 0 .425 6.208h9.532a9.662 9.662 0 0 1-1.85-4.486 7.197 7.197 0 0 0-.237-.25z" fill="#89c947" stroke-width=".14"/><path d="M25.65 36.633h2.966L25.7 33.71a1.05 1.05 0 0 0-1.487 1.483z" fill="#d5e962" stroke-width=".14"/><path d="M46.001 36.633a9.65 9.65 0 0 0 1.942-5.812.756.756 0 0 0-.755-.757H29.36a.756.756 0 0 0-.755.757c0 2.18.725 4.191 1.942 5.812z" fill="#ef5050" stroke-width=".14"/><g transform="matrix(.14 0 0 .14 0 -3.842)" fill="#c0272d"><path d="M281.15 289.091v-5.188a7.5 7.5 0 0 0-7.5-7.5 7.5 7.5 0 0 0-7.5 7.5v5.188zM295.539 289.091h11.663a7.5 7.5 0 0 0-.496-10.045l-7.281-7.298a7.5 7.5 0 0 0-10.606-.013 7.5 7.5 0 0 0-.013 10.606zM250.579 289.091l6.732-6.748a7.5 7.5 0 0 0-10.618-10.595l-7.282 7.298a7.5 7.5 0 0 0-.498 10.044zM239.048 268.865H228.75a7.5 7.5 0 0 1-7.5-7.5 7.5 7.5 0 0 1 7.5-7.5h10.298a7.5 7.5 0 0 1 0 15zM318.006 268.865h-10.299a7.5 7.5 0 0 1 0-15h10.299a7.5 7.5 0 0 1 0 15z"/></g><path d="M13.018 43.873a.142.142 0 0 0 .123-.023.14.14 0 0 0 .055-.112v-1.777a.911.911 0 0 1 1.82 0v1.777a.14.14 0 0 0 .178.135c.736-.207 1.605-.317 2.512-.317 2.55 0 4.262.826 4.262 1.598 0 .1-.03.204-.09.31a.14.14 0 0 0 .068.198c3.263 1.345 5.575 4.199 6.035 7.447a.14.14 0 0 0 .188.111l22.104-8.397a3.764 3.764 0 0 1 3.168.233 3.719 3.719 0 0 1 1.847 2.574l.192 1.04a.14.14 0 0 0 .21.094l7.43-4.387c.64-2.275.963-4.635.963-7.058 0-.4-.324-.726-.724-.726H12.796c-.4 0-.725.325-.725.726 0 2.233.277 4.412.82 6.521.042.011.085.021.127.033z" fill="#e6e9ed" stroke-width=".14"/><path d="M13.018 43.873a.142.142 0 0 0 .123-.023.14.14 0 0 0 .055-.112v-1.777a.911.911 0 0 1 1.82 0v1.777a.14.14 0 0 0 .178.135 9.113 9.113 0 0 1 2.124-.31 26.146 26.146 0 0 1-.748-6.244c0-.4.324-.726.724-.726h-4.498c-.4 0-.725.325-.725.726 0 2.233.277 4.412.82 6.52l.127.034z" opacity=".1" stroke-width=".14"/><path d="M14.106 44.373a4.87 4.87 0 0 1 1.05-.417v-1.995a1.05 1.05 0 1 0-2.1 0v1.995c.406.115.762.255 1.05.417z" fill="#89c947" stroke-width=".14"/><path d="M24.833 63.858l-3.793.002h-.001a3.739 3.739 0 0 1-3.68-3.05l-.038-.202a3.725 3.725 0 0 1 2.347-4.158l8.472-3.218c-.436-3.49-2.895-6.412-6.272-7.753-.328.55-1.456 1.03-2.925 1.202a.14.14 0 1 0-.071.248c.761.61 1.24 1.252 1.28 1.718a.53.53 0 0 1-.128.42c-.178.201-.53.308-1.015.308-.945 0-2.224-.395-3.42-1.057a8.625 8.625 0 0 1-1.393-.948.14.14 0 0 0-.18 0 8.604 8.604 0 0 1-1.394.948c-1.196.662-2.474 1.057-3.42 1.057-.485 0-.836-.107-1.015-.308a.53.53 0 0 1-.127-.42c.04-.466.518-1.108 1.28-1.717a.14.14 0 0 0-.072-.249c-1.47-.173-2.598-.652-2.925-1.203C2.613 46.959 0 50.37 0 54.345 0 59.677 4.702 64 10.501 64h14.56c.157 0 .036-.056-.228-.142z" fill="#ef5050" stroke-width=".14"/><path d="M4.543 54.345c0-3.167 1.659-5.978 4.221-7.739-1.22-.213-2.132-.642-2.42-1.128C2.611 46.959 0 50.371 0 54.345 0 59.677 4.702 64 10.501 64h4.543c-5.8 0-10.5-4.323-10.5-9.655z" opacity=".1" stroke-width=".14"/><path d="M22.108 45.154c0-.96-1.97-1.738-4.401-1.738-1.49 0-2.805.292-3.601.74-.796-.448-2.112-.74-3.601-.74-2.43 0-4.401.778-4.401 1.738 0 .788 1.328 1.452 3.147 1.666-1.113.89-1.623 1.827-1.169 2.34.601.678 2.664.356 4.607-.72a8.775 8.775 0 0 0 1.416-.964c.393.333.871.662 1.416.964 1.944 1.076 4.007 1.398 4.608.72.453-.513-.056-1.45-1.17-2.34 1.821-.214 3.149-.878 3.149-1.666z" fill="#368c0e" stroke-width=".14"/><path d="M71.667 51.371l-.282-1.52a.97.97 0 0 0-1.13-.776l-10.883 2 6.948-4.646a.967.967 0 0 0 .305-1.277l-.786-1.392a.973.973 0 0 0-1.341-.358l-9.04 5.336 1.71 9.232 10.369 1.863a.973.973 0 0 0 1.132-.81l.234-1.572a.969.969 0 0 0-.742-1.084l-8.155-1.87 10.882-2a.967.967 0 0 0 .78-1.126z" fill="#89c947" stroke-width=".14"/><path d="M17.22 60.834A3.879 3.879 0 0 0 21.04 64l32.757-.013a3.89 3.89 0 0 0 2.983-1.393 3.855 3.855 0 0 0 .834-3.175l-2.188-11.815a3.869 3.869 0 0 0-1.917-2.67 3.898 3.898 0 0 0-3.286-.242L19.618 56.32a3.865 3.865 0 0 0-2.435 4.314z" fill="#f7931e" stroke-width=".14"/><path d="M17.22 60.834c.053.282.138.55.246.805a4.044 4.044 0 0 1 2.092-1.799L51.52 47.698a4.07 4.07 0 0 1 4.049.679l-.143-.773a3.869 3.869 0 0 0-1.917-2.67 3.898 3.898 0 0 0-3.286-.242L19.618 56.32a3.865 3.865 0 0 0-2.435 4.314z" opacity=".1"/><g transform="matrix(.14 0 0 .14 0 -3.842)" fill="#ffc502"><path d="M370.837 449.389a7.5 7.5 0 0 0-14.732 2.818l6.174 32.272 15.271-.006zM330.183 458.282a7.5 7.5 0 0 0-14.74 2.778l4.418 23.435 15.263-.006zM290.439 401.794a7.503 7.503 0 0 0 7.268 5.67 7.5 7.5 0 0 0 7.279-9.334l-7.139-28.35-14.118 5.364zM251.413 451.746a7.5 7.5 0 0 0-14.762 2.662l5.431 30.117 15.241-.006zM175.752 437.728a7.5 7.5 0 1 0 14.68-3.081l-4.677-22.283-14.194 5.392z"/></g></svg><svg viewBox="-1 -1 59 59" width="59" height="59" id="envelope" x="284.48" y="60" xmlns="http://www.w3.org/2000/svg"><path fill="#dcd6cd" d="M0 5.5v39h56v-39z"/><path d="M30.965 27.607c-1.637 1.462-4.292 1.462-5.93 0l-2.087-1.843C16.419 31.591 0 44.5 0 44.5h56S39.581 31.591 33.052 25.764l-2.087 1.843z" fill="#e8e3d9"/><path d="M0 5.5l25.035 22.107c1.637 1.462 4.292 1.462 5.93 0L56 5.5H0z" fill="#efebde"/><path d="M56.707 49.793l-6.797-6.797 6.483-3.241-17.637-6.498 6.499 17.637 3.241-6.484 6.797 6.797a.997.997 0 0 0 1.414 0 .999.999 0 0 0 0-1.414z" fill="#3d324c"/></svg><svg id="facebook" data-name="Layer 1" width="23.23" height="44.01" viewBox="-1 -1 23.23 44.01" x="234.45" y="62.09" xmlns="http://www.w3.org/2000/svg"><defs><style>.ecls-1{fill:#fff}</style></defs><title>facebook</title><path class="ecls-1" d="M21.23.31V7H17.4a3.55 3.55 0 0 0-2.85.91 4.26 4.26 0 0 0-.74 2.72v4.77H21l-1 7.47h-6.19V42H6.27V22.85H0v-7.47h6.27V9.85q0-4.69 2.55-7.28A9 9 0 0 1 15.63 0a39.57 39.57 0 0 1 5.6.31z"/></svg><svg viewBox="-1 -1 74.75 66" width="74.75" height="66" id="fitness" x="86.02" y="62.09" xmlns="http://www.w3.org/2000/svg"><g transform="matrix(.14209 0 0 .14209 0 -4.374)"><path d="M386.902 322.816c-44.7 81.599-125.003 138.6-216.204 156.899l-6.899 1.5-8.101-3.898c-87.898-70.501-142.5-171.3-153.596-281.7C.601 181.816 0 167.717 0 153.616v-17.999c0-31.201 13.799-60.3 37.5-80.4 23.701-20.101 55.203-28.2 86.4-22.8 43.502 7.5 78.3 43.5 84.899 87.299 4.2 27.001-2.399 54.3-17.999 75.901-2.399 3.9-5.402 7.5-8.397 10.8 14.7 15 24.298 36.301 26.997 60 1.802 17.999-.601 36-6.599 52.8 32.102-4.2 64.102-16.8 88.997-38.101z" fill="#ffcebf"/><path d="M291.797 281.116l95.105 41.7c-44.7 81.599-125.003 138.6-216.204 156.899l-6.899 1.5-8.101-3.898c-87.898-70.501-142.5-171.3-153.596-281.7H190.8c-2.399 3.9-5.402 7.5-8.397 10.8 14.7 15 24.298 36.301 26.997 60 1.802 17.999-.601 36-6.599 52.8 32.101-4.201 64.101-16.8 88.996-38.101z" fill="#ffb99c"/><path d="M377 60.617c-74.399 0-135 60.599-135 135 0 74.399 60.601 135 135 135s135-60.601 135-135c0-74.401-60.601-135-135-135z" fill="#61729b"/><path d="M512 195.617c0 74.399-60.601 135-135 135s-135-60.601-135-135zM334.577 131.98l31.816 31.816-21.21 21.211-31.817-31.816z" fill="#47568c"/><path fill="#2c3b73" d="M408.815 206.219l31.816 31.816-21.21 21.21-31.817-31.815zM345.183 206.218l21.21 21.21-31.815 31.817-21.211-21.211z"/><path fill="#47568c" d="M419.42 131.98l21.211 21.211-31.816 31.816-21.21-21.21z"/><path d="M377 150.617c-24.902 0-45 20.099-45 45 0 24.899 20.098 45 45 45s45-20.101 45-45c0-24.901-20.098-45-45-45z" fill="#47568c"/><path d="M422 195.617c0 24.899-20.098 45-45 45s-45-20.101-45-45z" fill="#2c3b73"/></g></svg><svg height="66" viewBox="-1 -1 50 50" width="66" id="goal" x="124.38" y="128.09" xmlns="http://www.w3.org/2000/svg"><path d="M39.469 14.156l1.406-7.734L39.469 0H23.418l7.031 7.125-7.031 7.031zm0 0" fill="#ff7816" stroke-width=".094"/><path d="M39.469 0h2.812v25.406H39.47zm0 0" fill="#6e6e6e" stroke-width=".094"/><path d="M40.875 0h1.406v25.406h-1.406zm0 0" fill="#444" stroke-width=".094"/><path d="M33.844 22.594v5.625h-11.25v5.625h-11.25v5.625H0V48h48V22.594zm0 0" fill="#ffd400" stroke-width=".094"/><path d="M40.875 22.594H48V48h-7.125zm0 0" fill="#fdbf00" stroke-width=".094"/></svg><svg viewBox="-1.2 -1 62.38 66" width="62.38" height="66" id="idea" y="128.09" xmlns="http://www.w3.org/2000/svg"><path d="M29.989 10.868c-10.671 0-19.321 8.65-19.321 19.32 0 8.561 5.573 15.809 13.283 18.346v11.843h2.415V64h7.245v-3.623h2.415V48.534c7.71-2.537 13.283-9.785 13.283-18.345 0-10.67-8.65-19.321-19.32-19.321z" fill="#efce4a" stroke-width="1.208"/><g transform="matrix(1.20755 0 0 1.20755 -2.011 0)" fill="#efce4a"><path d="M26.5 0a1 1 0 0 0-1 1v4a1 1 0 1 0 2 0V1a1 1 0 0 0-1-1zM50.5 24h-4a1 1 0 1 0 0 2h4a1 1 0 1 0 0-2zM6.5 24h-4a1 1 0 1 0 0 2h4a1 1 0 1 0 0-2zM42.764 7.322l-2.828 2.828a.999.999 0 1 0 1.414 1.414l2.828-2.828a.999.999 0 1 0-1.414-1.414zM11.65 38.436l-2.828 2.828a.999.999 0 1 0 1.414 1.414l2.828-2.828a.999.999 0 1 0-1.414-1.414zM41.35 38.436a.999.999 0 1 0-1.414 1.414l2.828 2.828a.997.997 0 0 0 1.414 0 .999.999 0 0 0 0-1.414zM10.236 7.322a.999.999 0 1 0-1.414 1.414l2.828 2.828a.997.997 0 0 0 1.414 0 .999.999 0 0 0 0-1.414z"/></g><path d="M16.706 31.396c-.668 0-1.208-.54-1.208-1.207 0-7.99 6.5-14.49 14.49-14.49a1.206 1.206 0 1 1 0 2.414c-6.658 0-12.075 5.417-12.075 12.076 0 .667-.54 1.207-1.207 1.207z" fill="#f7e6a1" stroke-width="1.208"/><path fill="#556080" d="M33.611 60.377h2.415v-8.452H23.951v8.452h2.415V64h7.245z"/></svg><svg id="instagram" data-name="Layer 1" width="44.01" height="44.01" viewBox="-1 -1 44.01 44.01" x="284.48" y="163.06" xmlns="http://www.w3.org/2000/svg"><defs><style>.icls-1{fill:#fff}</style></defs><title>instagram</title><path class="icls-1" d="M37.25 35.49V17.77h-3.69a11.77 11.77 0 0 1 .57 3.58 12.12 12.12 0 0 1-1.75 6.36 12.76 12.76 0 0 1-4.76 4.59 13.13 13.13 0 0 1-6.56 1.7 12.78 12.78 0 0 1-9.19-3.71 12 12 0 0 1-3.83-9 11.77 11.77 0 0 1 .49-3.56H4.68v17.76a1.63 1.63 0 0 0 1.6 1.67h29.3a1.63 1.63 0 0 0 1.17-.47 1.59 1.59 0 0 0 .5-1.2zm-7.77-14.57A7.75 7.75 0 0 0 27 15.14a8.28 8.28 0 0 0-6-2.4 8.25 8.25 0 0 0-5.91 2.39 7.75 7.75 0 0 0-2.47 5.78 7.75 7.75 0 0 0 2.47 5.79A8.25 8.25 0 0 0 21 29.1a8.28 8.28 0 0 0 6-2.4 7.75 7.75 0 0 0 2.48-5.78zm7.76-9.84V6.56a1.84 1.84 0 0 0-.54-1.31 1.8 1.8 0 0 0-1.31-.56h-4.78a1.8 1.8 0 0 0-1.31.56 1.84 1.84 0 0 0-.54 1.31v4.52A1.87 1.87 0 0 0 30.6 13h4.8a1.87 1.87 0 0 0 1.85-1.89zM42 5.39v31.23A5.41 5.41 0 0 1 36.62 42H5.39a5.19 5.19 0 0 1-3.8-1.59A5.19 5.19 0 0 1 0 36.62V5.39a5.19 5.19 0 0 1 1.59-3.8A5.19 5.19 0 0 1 5.39 0h31.23a5.19 5.19 0 0 1 3.8 1.59A5.19 5.19 0 0 1 42 5.39z"/></svg><svg width="284.48" height="62.09" viewBox="-1 -1 76.74 17.9" id="liliana_consulting" xmlns="http://www.w3.org/2000/svg"><g transform="translate(-45.545 -33.804)" font-weight="400" font-family="sans-serif" letter-spacing="0" word-spacing="0" fill="#e6e6e6"><text style="line-height:1.25" x="44.687" y="40.536" font-size="4.159" stroke-width=".104"><tspan x="44.687" y="40.536" style="-inkscape-font-specification:'Segoe Script'" font-size="8.873" font-family="Segoe Script">Liliana Aguilar</tspan></text><flowRoot xml:space="preserve" style="line-height:1.25" transform="matrix(.10398 0 0 .10398 41.597 27.203)" font-style="normal" font-size="40" fill-opacity="1" stroke="none"><flowRegion fill="#e6e6e6"><path d="M-102.857 188.234h365.714v145.714h-365.714z"/></flowRegion><flowPara/></flowRoot><text style="line-height:1.25" x="54.253" y="48.557" font-size="4.159" stroke-width=".104"><tspan x="54.253" y="48.557" font-size="5.545">Health Management</tspan></text></g></svg><svg id="mail" data-name="Layer 1" width="66" height="50" viewBox="-1 -1 66 50" y="194.09" xmlns="http://www.w3.org/2000/svg"><defs><style>.kcls-1{fill:#2f5572}</style></defs><title>mail</title><path class="kcls-1" d="M0 0v8l32 16L64 8V0H0zm0 16v32h64V16L32 32z"/></svg><svg viewBox="-1 -1 86.02 66" width="86.02" height="66" id="measuring-tape" y="62.09" xmlns="http://www.w3.org/2000/svg"><g transform="matrix(.1641 0 0 .1641 0 -10.01)"><path fill="#ff641a" d="M300 181l-77.97-41.583L90 196 60 316h240z"/><path d="M391 344.2v56.4L360 451h-30l-16.802-14.401L300 451h-30l-13.799-12.601L240 451h-30l-13.198-13.2L180 451h-15c-5.098 0-10.203-.3-15-.901l-13.799-19.2-16.201 13.8C50.999 425.2 0 361.3 0 286V181l30 15c0 54.899 51.599 98.699 120 104.399 5.098.3 9.902.601 15 .601h195z" fill="#ffda2d"/><path d="M391 344.2v56.4L360 451h-30l-16.802-14.401L300 451h-30l-13.799-12.601L240 451h-30l-13.198-13.2L180 451h-15c-5.098 0-10.203-.3-15-.901v-149.7c5.098.3 9.902.601 15 .601h195z" fill="#fdbf00"/><path d="M300 181c0 67.2-65.999 120-150 120S0 248.2 0 181 65.999 61 150 61s150 52.8 150 120z" fill="#fdbf00"/><path d="M512 451H360V301h152z" fill="#d8d8fc"/><path fill="#47568c" d="M421 361h30v30h-30z"/><path fill="#ff641a" d="M300 361h30v90h-30zM240 391h30v60h-30zM180 361h30v90h-30z"/><path d="M150 391v59.099c-10.203-.599-20.398-2.699-30-5.4V391zM300 181c0 67.2-65.999 120-150 120V61c84.001 0 150 52.8 150 120z" fill="#ff9100"/><path d="M150 106c-58.799 0-105 32.999-105 75 0 41.999 46.201 75 105 75s105-33.001 105-75c0-42.001-46.201-75-105-75z" fill="#ffda2d"/><path d="M255 181c0 41.999-46.201 75-105 75V106c58.799 0 105 32.999 105 75z" fill="#fdbf00"/><path fill="#fdbf00" d="M105 166h90v30h-90z"/><path fill="#ff9100" d="M150 166h45v30h-45z"/></g></svg><svg id="twitter" data-name="Layer 1" width="53.78" height="44.06" viewBox="-1 -1 53.78 44.06" x="284.48" y="119" xmlns="http://www.w3.org/2000/svg"><defs><style>.mcls-1{fill:#fff}</style></defs><title>twitter</title><path class="mcls-1" d="M51.78 5a22.23 22.23 0 0 1-5.32 5.52v1.38a30.15 30.15 0 0 1-1.25 8.53 30.81 30.81 0 0 1-3.76 8.13 32.1 32.1 0 0 1-6.06 6.92 27 27 0 0 1-8.48 4.8 31 31 0 0 1-10.62 1.8A29.47 29.47 0 0 1 0 37.29a22.71 22.71 0 0 0 2.56.13 20.78 20.78 0 0 0 13.17-4.53 10.63 10.63 0 0 1-9.92-7.36 13.45 13.45 0 0 0 2 .16 11 11 0 0 0 2.79-.36 10.44 10.44 0 0 1-6.09-3.67 10.25 10.25 0 0 1-2.41-6.75v-.13a10.52 10.52 0 0 0 4.8 1.34 10.6 10.6 0 0 1-3.45-3.78 10.34 10.34 0 0 1-1.28-5.07 10.4 10.4 0 0 1 1.45-5.33 30.08 30.08 0 0 0 9.71 7.83A29.57 29.57 0 0 0 25.53 13a11.79 11.79 0 0 1-.26-2.43 10.23 10.23 0 0 1 3-7.48 10.64 10.64 0 0 1 15 0l.21.22A20.81 20.81 0 0 0 50.33.8a10.3 10.3 0 0 1-4.67 5.85A21.14 21.14 0 0 0 51.78 5z"/></svg><svg id="wifi" data-name="Layer 1" width="62" height="66" viewBox="-1 -1 62 66" x="62.38" y="128.09" xmlns="http://www.w3.org/2000/svg"><defs><style>.ncls-1{fill:#d4953e}</style></defs><title>wifi</title><path class="ncls-1" d="M29.88 0A55.39 55.39 0 0 0 0 8.72l4.22 6.48a47.32 47.32 0 0 1 25.66-7.28 47.31 47.31 0 0 1 25.9 7.28L60 8.72A55.53 55.53 0 0 0 29.88 0zm0 24a31.08 31.08 0 0 0-17 5l4.22 6.72A23.09 23.09 0 0 1 29.8 32a24.17 24.17 0 0 1 13 3.76L47 29a32.37 32.37 0 0 0-17.2-5h.07zm0 24a8 8 0 1 0 8 8 8 8 0 0 0-8-8z"/></svg><svg id="youtube" data-name="Layer 1" width="36.75" height="44" viewBox="-1 -1 36.75 44" x="66" y="194.09" xmlns="http://www.w3.org/2000/svg"><defs><style>.ocls-1{fill:#fff}</style></defs><title>youtube</title><path class="ocls-1" d="M22.13 29.15v5q0 1.57-.91 1.57a1.5 1.5 0 0 1-1.06-.52v-7.11a1.5 1.5 0 0 1 1.06-.54q.91 0 .91 1.6zm7.92 0v1.08h-2.1v-1.06q0-1.59 1.06-1.59t1 1.59zM7.42 24h2.5v-2.14h-7.3v2.2h2.46V37.4h2.34V24zm6.75 13.4h2.09V25.82h-2.09v8.86a1.86 1.86 0 0 1-1.31 1 .48.48 0 0 1-.49-.47 6.52 6.52 0 0 1 0-.82v-8.57h-2.14V35a5.79 5.79 0 0 0 .19 1.71 1.26 1.26 0 0 0 1.36.87 3.43 3.43 0 0 0 2.39-1.43v1.25zm10.05-3.47v-4.6A8.33 8.33 0 0 0 24 27a1.63 1.63 0 0 0-1.67-1.31A2.82 2.82 0 0 0 20.16 27v-5.1h-2.08v15.5h2.09v-1.13a2.91 2.91 0 0 0 2.18 1.31A1.62 1.62 0 0 0 24 36.27a8.61 8.61 0 0 0 .22-2.35zm7.92-.24v-.3H30a11.6 11.6 0 0 1 0 1.43.9.9 0 0 1-.94.85q-1.08 0-1.08-1.61V32h4.19v-2.41a4.65 4.65 0 0 0-.66-2.72 3.2 3.2 0 0 0-5 0 4.52 4.52 0 0 0-.66 2.72v4.05a4.4 4.4 0 0 0 .66 2.72 3 3 0 0 0 2.49 1.2 2.9 2.9 0 0 0 3-2.51 10.31 10.31 0 0 0 .09-1.36zM17.89 12.3V7.38q0-1.61-1-1.61t-1 1.61v4.92q0 1.64 1 1.64t1-1.64zm16.85 17.6a40.6 40.6 0 0 1-.61 8.2 4.45 4.45 0 0 1-1.36 2.32 4.1 4.1 0 0 1-2.39 1.08 125.31 125.31 0 0 1-13 .49 125.31 125.31 0 0 1-13-.49A4.15 4.15 0 0 1 2 40.42 4.28 4.28 0 0 1 .63 38.1 39.76 39.76 0 0 1 0 29.9a40.6 40.6 0 0 1 .61-8.2A4.45 4.45 0 0 1 2 19.37a4.25 4.25 0 0 1 2.41-1.1q4.29-.47 13-.47t13 .47a4.4 4.4 0 0 1 3.75 3.42 39.76 39.76 0 0 1 .58 8.21zM11.35 0h2.39l-2.83 9.35v6.35H8.57V9.35a39.68 39.68 0 0 0-1.43-5Q6.27 2 5.61 0H8.1l1.67 6.16zM20 7.8v4.1a4.59 4.59 0 0 1-.66 2.76 2.88 2.88 0 0 1-2.49 1.19 2.9 2.9 0 0 1-2.46-1.19 4.68 4.68 0 0 1-.66-2.76V7.8a4.59 4.59 0 0 1 .66-2.74 2.9 2.9 0 0 1 2.46-1.19 2.88 2.88 0 0 1 2.49 1.19A4.59 4.59 0 0 1 20 7.8zM27.87 4v11.7h-2.13v-1.27a3.37 3.37 0 0 1-2.41 1.45A1.31 1.31 0 0 1 22 15a6 6 0 0 1-.19-1.76V4h2.13v8.6a6.14 6.14 0 0 0 0 .82.49.49 0 0 0 .47.52 1.87 1.87 0 0 0 1.31-1V4h2.16z"/></svg></svg>