<?xml version="1.0" encoding="utf-8"?><svg width="347" height="312" viewBox="0 0 347 312" xmlns="http://www.w3.org/2000/svg" xmlns:xlink="http://www.w3.org/1999/xlink"><svg id="clear-view-escapes" data-name="Layer 1" width="142.4" height="59.53" viewBox="0 0 142.4 59.53" y="60.089" xmlns="http://www.w3.org/2000/svg"><defs><style>.acls-1{fill:#fff}</style></defs><title>clear-view-escapes</title><path class="acls-1" d="M19.5 27.52v4.75H5.93v5.51h12.45v4.39H5.93v6.3h13.85v4.75H.28v-25.7H19.5zM27.36 48.59a3 3 0 0 0 .88 1 3.78 3.78 0 0 0 1.24.56 5.84 5.84 0 0 0 1.46.18 5.46 5.46 0 0 0 1.13-.13 3.86 3.86 0 0 0 1.08-.4 2.47 2.47 0 0 0 .85-.75 1.89 1.89 0 0 0 .32-1.13 1.91 1.91 0 0 0-1.53-1.73 30.59 30.59 0 0 0-4.3-1.19q-1.12-.25-2.18-.59a7.38 7.38 0 0 1-1.89-.9 4.35 4.35 0 0 1-1.33-1.4 4 4 0 0 1-.5-2.07 5.6 5.6 0 0 1 .7-3 5.16 5.16 0 0 1 1.85-1.82 8.13 8.13 0 0 1 2.59-.94 15.92 15.92 0 0 1 3-.27 14.79 14.79 0 0 1 2.93.29 7.77 7.77 0 0 1 2.54 1 5.83 5.83 0 0 1 1.8 1.88 6.11 6.11 0 0 1 .89 2.82H34a2.24 2.24 0 0 0-1.12-2 5.1 5.1 0 0 0-2.37-.52 8.77 8.77 0 0 0-.94.05 3.15 3.15 0 0 0-.92.23 1.91 1.91 0 0 0-.7.52 1.38 1.38 0 0 0-.29.92 1.4 1.4 0 0 0 .5 1.12 3.88 3.88 0 0 0 1.31.7 16.38 16.38 0 0 0 1.85.49l2.18.49a21.57 21.57 0 0 1 2.18.61 7.2 7.2 0 0 1 1.89 1 4.63 4.63 0 0 1 1.33 1.48 4.34 4.34 0 0 1 .5 2.18 5.65 5.65 0 0 1-2.66 5.07A7.9 7.9 0 0 1 34 53.37a15.9 15.9 0 0 1-3.11.31 15.36 15.36 0 0 1-3.17-.32A8.35 8.35 0 0 1 25 52.27a6.17 6.17 0 0 1-2-2 6.25 6.25 0 0 1-.85-3.11H27a2.8 2.8 0 0 0 .36 1.43zM51.27 38a3.59 3.59 0 0 0-2.05.56A4.45 4.45 0 0 0 47.87 40a6.23 6.23 0 0 0-.74 1.94 10.54 10.54 0 0 0-.21 2.06 10.11 10.11 0 0 0 .21 2 6.32 6.32 0 0 0 .7 1.89 4 4 0 0 0 1.31 1.39 3.61 3.61 0 0 0 2 .54 3.75 3.75 0 0 0 2.83-1 4.86 4.86 0 0 0 1.24-2.75h4.93a8.43 8.43 0 0 1-2.88 5.65 9.29 9.29 0 0 1-6.08 1.94 10.16 10.16 0 0 1-3.83-.7 8.49 8.49 0 0 1-3-2 8.92 8.92 0 0 1-1.91-3 10.42 10.42 0 0 1-.68-3.83 12.4 12.4 0 0 1 .63-4 9 9 0 0 1 1.9-3.13 8.49 8.49 0 0 1 3-2.1 10.15 10.15 0 0 1 4-.76 11.63 11.63 0 0 1 3.19.43 8.49 8.49 0 0 1 2.73 1.31 6.79 6.79 0 0 1 2.83 5.31h-5A3.43 3.43 0 0 0 51.27 38zM62.82 40.33a5.93 5.93 0 0 1 .9-3 6.13 6.13 0 0 1 2-1.91 8.83 8.83 0 0 1 2.75-1 15.71 15.71 0 0 1 3.08-.31 20.85 20.85 0 0 1 2.84.2 8.72 8.72 0 0 1 2.63.77A5.18 5.18 0 0 1 79 36.67a4.47 4.47 0 0 1 .76 2.72v9.68a19.49 19.49 0 0 0 .14 2.41 4.34 4.34 0 0 0 .5 1.73h-5.19a6.77 6.77 0 0 1-.21-.88 7.44 7.44 0 0 1-.13-.92A6.64 6.64 0 0 1 72 53.17a11.55 11.55 0 0 1-3.38.5 9.1 9.1 0 0 1-2.48-.32 5.68 5.68 0 0 1-2-1 4.69 4.69 0 0 1-1.35-1.73 5.84 5.84 0 0 1-.49-2.48 5.42 5.42 0 0 1 .56-2.61 4.66 4.66 0 0 1 1.44-1.64 6.44 6.44 0 0 1 2-.92 21.75 21.75 0 0 1 2.29-.49q1.15-.18 2.27-.29a13.74 13.74 0 0 0 2-.32 3.43 3.43 0 0 0 1.37-.63 1.38 1.38 0 0 0 .4-1.24 2.72 2.72 0 0 0-.27-1.31 2 2 0 0 0-.72-.69 2.86 2.86 0 0 0-1-.36 8.61 8.61 0 0 0-1.28-.09 3.88 3.88 0 0 0-2.37.65 2.89 2.89 0 0 0-1 2.16h-5.17zm11.8 3.78a2.28 2.28 0 0 1-.81.45 8.28 8.28 0 0 1-1 .27c-.41.07-.81.17-1.2.17s-.82.11-1.22.18a9.24 9.24 0 0 0-1.13.29 3.34 3.34 0 0 0-1 .49 2.3 2.3 0 0 0-.67.77 2.49 2.49 0 0 0-.25 1.19 2.4 2.4 0 0 0 .25 1.15 1.93 1.93 0 0 0 .68.74 2.9 2.9 0 0 0 1 .38 6.48 6.48 0 0 0 1.19.11 4.51 4.51 0 0 0 2.34-.5 3.36 3.36 0 0 0 1.22-1.21 3.87 3.87 0 0 0 .49-1.42 10.06 10.06 0 0 0 .12-1.17v-1.89zM88.56 34.6V37h.07A5.62 5.62 0 0 1 91 34.78a7.29 7.29 0 0 1 3.17-.68 8.07 8.07 0 0 1 3.78.83 7.82 7.82 0 0 1 2.63 2.2 9.31 9.31 0 0 1 1.55 3.19 14.19 14.19 0 0 1 .5 3.8 12.82 12.82 0 0 1-.5 3.6 9.18 9.18 0 0 1-1.53 3.06 7.58 7.58 0 0 1-2.6 2.11 7.69 7.69 0 0 1-3.58.79 7.23 7.23 0 0 1-3.18-.7 6 6 0 0 1-2.39-2.07h-.04v8.82H83.7V34.6h4.86zm6.64 14.76A4.09 4.09 0 0 0 96.56 48a5.43 5.43 0 0 0 .74-1.89 11.19 11.19 0 0 0 .22-2.2 10.32 10.32 0 0 0-.23-2.2 5.86 5.86 0 0 0-.77-1.92 4.33 4.33 0 0 0-1.39-1.37 3.87 3.87 0 0 0-2.08-.42 3.94 3.94 0 0 0-2.11.52 4.22 4.22 0 0 0-1.37 1.35 5.6 5.6 0 0 0-.74 1.91 11.3 11.3 0 0 0-.2 2.22 10.31 10.31 0 0 0 .23 2.2 5.69 5.69 0 0 0 .76 1.8 4.36 4.36 0 0 0 5.58 1.36zM111.15 48.75a5.24 5.24 0 0 0 6 .34 3.21 3.21 0 0 0 1.37-1.64H123a8.54 8.54 0 0 1-3.31 4.79 9.75 9.75 0 0 1-5.4 1.44 10.6 10.6 0 0 1-4-.7 8.22 8.22 0 0 1-3-2 9 9 0 0 1-1.89-3.09 11.34 11.34 0 0 1-.67-4 10.84 10.84 0 0 1 .68-3.89 9 9 0 0 1 4.95-5.18 9.63 9.63 0 0 1 3.87-.76 8.84 8.84 0 0 1 4.14.92 8.26 8.26 0 0 1 2.9 2.46A10.14 10.14 0 0 1 123 41a13.14 13.14 0 0 1 .36 4.14H109.9a5.16 5.16 0 0 0 1.25 3.61zm5.78-9.75a3.59 3.59 0 0 0-2.79-1 4.45 4.45 0 0 0-2 .41 3.89 3.89 0 0 0-1.3 1 3.77 3.77 0 0 0-.68 1.3 5.83 5.83 0 0 0-.23 1.22h8.31a5.91 5.91 0 0 0-1.31-2.93zM130.64 48.59a3 3 0 0 0 .88 1 3.78 3.78 0 0 0 1.24.56 5.83 5.83 0 0 0 1.46.18 5.46 5.46 0 0 0 1.13-.13 3.86 3.86 0 0 0 1.08-.4 2.47 2.47 0 0 0 .81-.72 1.89 1.89 0 0 0 .32-1.13 1.91 1.91 0 0 0-1.56-1.76 30.55 30.55 0 0 0-4.22-1.19q-1.11-.25-2.18-.59a7.39 7.39 0 0 1-1.89-.9 4.36 4.36 0 0 1-1.33-1.4 4 4 0 0 1-.5-2.07 5.6 5.6 0 0 1 .7-3 5.18 5.18 0 0 1 1.85-1.82 8.13 8.13 0 0 1 2.59-.94 15.91 15.91 0 0 1 3-.27 14.79 14.79 0 0 1 2.93.29 7.77 7.77 0 0 1 2.54 1 5.84 5.84 0 0 1 1.85 1.82 6.11 6.11 0 0 1 .88 2.86h-4.86a2.24 2.24 0 0 0-1.12-2 5.1 5.1 0 0 0-2.37-.52 8.77 8.77 0 0 0-.94.05 3.15 3.15 0 0 0-.92.23 1.9 1.9 0 0 0-.7.52 1.38 1.38 0 0 0-.29.92 1.4 1.4 0 0 0 .5 1.12 3.87 3.87 0 0 0 1.31.7 16.33 16.33 0 0 0 1.85.49l2.1.51a21.57 21.57 0 0 1 2.18.61 7.18 7.18 0 0 1 1.89 1 4.63 4.63 0 0 1 1.33 1.48 4.33 4.33 0 0 1 .5 2.18 5.65 5.65 0 0 1-2.68 5.04 7.89 7.89 0 0 1-2.72 1.06 15.9 15.9 0 0 1-3.11.31 15.35 15.35 0 0 1-3.17-.32 8.35 8.35 0 0 1-2.75-1.08 6.18 6.18 0 0 1-2-2 6.25 6.25 0 0 1-.85-3.11h4.86a2.8 2.8 0 0 0 .38 1.42zM23.64 6.29a6.36 6.36 0 0 0-.55-1.43 4 4 0 0 0-.9-1.12A4 4 0 0 0 20.9 3a5.11 5.11 0 0 0-1.71-.26 5 5 0 0 0-2.46.58A4.84 4.84 0 0 0 15 4.85a6.93 6.93 0 0 0-1 2.19 10.16 10.16 0 0 0 0 5 6.92 6.92 0 0 0 1 2.19 4.83 4.83 0 0 0 1.69 1.54 5 5 0 0 0 2.46.57A4.44 4.44 0 0 0 21 16a4.12 4.12 0 0 0 1.38-1 4.71 4.71 0 0 0 .9-1.49 7.13 7.13 0 0 0 .43-1.83h3.05a8.48 8.48 0 0 1-.69 2.93 7.17 7.17 0 0 1-1.59 2.29 7 7 0 0 1-2.35 1.49 8.14 8.14 0 0 1-3 .53 8.43 8.43 0 0 1-3.59-.74 7.88 7.88 0 0 1-2.69-2 9 9 0 0 1-1.69-3 11 11 0 0 1-.59-3.63 11 11 0 0 1 .59-3.6 9 9 0 0 1 1.69-3 8 8 0 0 1 2.69-2 8.29 8.29 0 0 1 3.65-.76A9.46 9.46 0 0 1 22 .6a7.31 7.31 0 0 1 2.34 1.2A6.23 6.23 0 0 1 26 3.72a6.66 6.66 0 0 1 .78 2.58h-3.14zM29.31.62h2.85v17.85h-2.85V.62zM37.49 12.74a5 5 0 0 0 .21 1.45 3.57 3.57 0 0 0 .64 1.23 3.06 3.06 0 0 0 1.08.84 3.54 3.54 0 0 0 1.55.31A3.42 3.42 0 0 0 43 16a3.17 3.17 0 0 0 1.14-1.61h2.7a5.36 5.36 0 0 1-2.1 3.26 5.71 5.71 0 0 1-1.74.85 7 7 0 0 1-2 .29 6.85 6.85 0 0 1-2.7-.5 5.58 5.58 0 0 1-2-1.4 5.93 5.93 0 0 1-1.3-2.12 8.74 8.74 0 0 1-.36-2.77 7.79 7.79 0 0 1 .44-2.61 6.68 6.68 0 0 1 1.25-2.18 5.86 5.86 0 0 1 4.56-2 5.8 5.8 0 0 1 2.74.64 6 6 0 0 1 2 1.69 6.84 6.84 0 0 1 1.17 2.39 7.42 7.42 0 0 1 .2 2.81h-9.5zm6.65-1.88a4.61 4.61 0 0 0-.29-1.3 3.47 3.47 0 0 0-.65-1.09 3.23 3.23 0 0 0-1-.75 3 3 0 0 0-1.31-.29 3.42 3.42 0 0 0-1.36.26 3.11 3.11 0 0 0-1.05.73 3.59 3.59 0 0 0-.7 1.09 3.78 3.78 0 0 0-.29 1.35h6.65zM60 15.59a1.51 1.51 0 0 0 .14.75.58.58 0 0 0 .54.23H61a1.85 1.85 0 0 0 .4 0v2l-.4.04-.49.11-.5.08h-.43a2.75 2.75 0 0 1-1.45-.35 1.74 1.74 0 0 1-.75-1.23 5 5 0 0 1-2.09 1.2 8.22 8.22 0 0 1-2.39.38 5.86 5.86 0 0 1-1.68-.24 4.38 4.38 0 0 1-1.41-.7 3.35 3.35 0 0 1-1-1.18 3.62 3.62 0 0 1-.35-1.68 3.84 3.84 0 0 1 .44-2 3.24 3.24 0 0 1 1.15-1.18 5.21 5.21 0 0 1 1.6-.61q.89-.19 1.79-.29a14.67 14.67 0 0 1 1.48-.21 6.86 6.86 0 0 0 1.24-.21 1.9 1.9 0 0 0 .84-.37 1.27 1.27 0 0 0 .31-.94 1.46 1.46 0 0 0-.26-.9 1.77 1.77 0 0 0-.65-.54 2.82 2.82 0 0 0-.86-.25 6.94 6.94 0 0 0-.9-.06 3.58 3.58 0 0 0-2 .5 2 2 0 0 0-.87 1.55h-2.83a4.29 4.29 0 0 1 .6-2.08 4.14 4.14 0 0 1 1.34-1.33 5.48 5.48 0 0 1 1.84-.7 10.94 10.94 0 0 1 2.1-.2 8.85 8.85 0 0 1 1.88.2 5.34 5.34 0 0 1 1.65.62 3.61 3.61 0 0 1 1.19 1.16A3.19 3.19 0 0 1 60 8.94v6.65zM57.14 12a3.45 3.45 0 0 1-1.6.51q-1 .09-1.9.26a6.12 6.12 0 0 0-.87.21 2.63 2.63 0 0 0-.75.38 1.65 1.65 0 0 0-.51.63 2.14 2.14 0 0 0-.19.94 1.19 1.19 0 0 0 .27.8 2 2 0 0 0 .66.51 3.08 3.08 0 0 0 .85.26 5.3 5.3 0 0 0 .84.07 4.6 4.6 0 0 0 1-.12A3.4 3.4 0 0 0 56 16a2.73 2.73 0 0 0 .81-.76 1.93 1.93 0 0 0 .33-1.14V12zM63.06 5.54h2.68V8h.05a2.88 2.88 0 0 1 .49-1 4.73 4.73 0 0 1 .88-.91 4.4 4.4 0 0 1 1.14-.66 3.41 3.41 0 0 1 1.28-.25 6.21 6.21 0 0 1 .69 0h.39V8L70 7.93a5.06 5.06 0 0 0-.61 0 3.28 3.28 0 0 0-1.36.29 3.13 3.13 0 0 0-1.09.78 4.16 4.16 0 0 0-.75 1.39 6 6 0 0 0-.27 1.9v6.15h-2.86V5.54zM77.19.62h3.25l4.48 14.13H85L89.54.62h3.17l-6.1 17.85h-3.47zM94.42.62h2.85v2.7h-2.85V.62zm0 4.93h2.85v12.92h-2.85V5.54zM102.59 12.74a5 5 0 0 0 .21 1.45 3.57 3.57 0 0 0 .64 1.23 3.06 3.06 0 0 0 1.08.84 3.54 3.54 0 0 0 1.55.31 3.42 3.42 0 0 0 2-.54 3.18 3.18 0 0 0 1.14-1.61h2.7a5.36 5.36 0 0 1-2.1 3.26 5.71 5.71 0 0 1-1.74.85 7 7 0 0 1-2 .29 6.85 6.85 0 0 1-2.7-.5 5.58 5.58 0 0 1-2-1.4 5.93 5.93 0 0 1-1.22-2.15 8.73 8.73 0 0 1-.41-2.77 7.77 7.77 0 0 1 .44-2.61 6.69 6.69 0 0 1 1.25-2.18 5.86 5.86 0 0 1 4.56-2 5.79 5.79 0 0 1 2.74.64 6 6 0 0 1 2 1.69 6.85 6.85 0 0 1 1.16 2.41 7.42 7.42 0 0 1 .19 2.81h-9.5zm6.65-1.88a4.6 4.6 0 0 0-.29-1.3 3.48 3.48 0 0 0-.65-1.09 3.22 3.22 0 0 0-1-.75 3 3 0 0 0-1.3-.28 3.43 3.43 0 0 0-1.36.26 3.12 3.12 0 0 0-1 .73 3.6 3.6 0 0 0-.7 1.09 3.8 3.8 0 0 0-.29 1.35h6.65zM113.1 5.54h3l2.53 9.65 2.42-9.65H124l2.33 9.65L129 5.54h2.9l-4 12.93h-2.93l-2.4-9.6-2.37 9.6h-3z" transform="translate(-.28 -.19)"/></svg><svg id="comment" data-name="Layer 1" width="64" height="64" viewBox="0 0 64 64" y="247.619" xmlns="http://www.w3.org/2000/svg"><defs><style>.bcls-1{fill:#2f5572}</style></defs><title>comment</title><path class="bcls-1" d="M.72.08A.67.67 0 0 0 0 .8v46.48a.72.72 0 0 0 .72.72H48l16 16V.72a.67.67 0 0 0-.72-.72H.8z"/></svg><svg viewBox="0 0 71.683334 64.000008" width="71.683" height="64" id="diet" x="156.769" y="119.619" xmlns="http://www.w3.org/2000/svg"><path fill="#48c1e1" stroke-width=".14" d="M8.513 6.452h7.249v4.837H8.513z"/><path d="M17.257 5.92a.723.723 0 0 1-.721.72H7.739a.723.723 0 0 1-.721-.72V.72c0-.396.324-.721.72-.721h8.797c.397 0 .721.325.721.721z" fill="#046699" stroke-width=".14"/><path d="M10.025 5.92V.72c0-.396.325-.721.721-.721H7.74a.723.723 0 0 0-.721.721V5.92c0 .397.324.721.72.721h3.008a.723.723 0 0 1-.72-.72z" opacity=".1"/><path d="M6.266 45.662a.14.14 0 0 0 .068-.198.631.631 0 0 1-.09-.31c0-.772 1.712-1.598 4.261-1.598.82 0 1.62.091 2.311.264a.14.14 0 0 0 .17-.17 25.85 25.85 0 0 1-.76-5.465l-.002-.065a26.655 26.655 0 0 1-.013-.8c0-.324.262-.586.585-.586h1.264a.14.14 0 0 0 .14-.156 4.475 4.475 0 0 1 3.109-4.775.14.14 0 0 0 .083-.194 4.233 4.233 0 0 1-.355-1.105 4.242 4.242 0 0 1 2.4-4.57.14.14 0 0 0 .074-.174 4.237 4.237 0 0 1 1.259-4.655v-6.013c0-2.214-1.807-4.025-4.016-4.025H7.52c-2.209 0-4.016 1.811-4.016 4.025v32.24a10.462 10.462 0 0 1 2.762-1.67z" fill="#a2dff9" stroke-width=".14"/><path d="M17.308 31.803a.14.14 0 0 0 .084-.194 4.233 4.233 0 0 1-.355-1.105 4.242 4.242 0 0 1 2.401-4.57.14.14 0 0 0 .073-.174 4.237 4.237 0 0 1 1.259-4.655v-2.708H3.504v14.897h11.638a4.475 4.475 0 0 1 2.166-1.491z" fill="#046699" stroke-width=".14"/><path d="M7.84 43.917V15.092c0-2.214 1.807-4.025 4.016-4.025H7.52c-2.209 0-4.016 1.811-4.016 4.025v32.24a10.466 10.466 0 0 1 2.762-1.67.14.14 0 0 0 .068-.198.631.631 0 0 1-.09-.31c0-.453.592-.925 1.596-1.237z" opacity=".1" stroke-width=".14"/><path d="M33.957 22.514c.04.234.061.476.062.72a.14.14 0 0 0 .128.14 4.228 4.228 0 0 1 3.729 3.177.14.14 0 0 0 .231.068 4.432 4.432 0 0 1 2.628-1.184.14.14 0 0 0 .127-.134 7.687 7.687 0 0 1 2.248-5.199l.089-.085a9.645 9.645 0 0 0-2.707-5.336.755.755 0 0 0-1.069 0l-6.146 6.16c.336.49.573 1.055.68 1.673z" fill="#ef5050" stroke-width=".14"/><g transform="matrix(.14 0 0 .14 0 -3.842)" fill="#c0272d"><path d="M270.528 217.079a1 1 0 0 0 1.652.487 31.977 31.977 0 0 1 8.48-5.695 7.473 7.473 0 0 0-1.872-3.137l-7.281-7.299a7.5 7.5 0 0 0-10.606-.013c-.022.021-.039.044-.06.066a30.13 30.13 0 0 1 9.687 15.591zM286.125 194.879h-10.296a7.5 7.5 0 0 1-7.5-7.5 7.5 7.5 0 0 1 7.5-7.5h10.296a7.5 7.5 0 0 1 7.5 7.5c0 4.143-3.357 7.5-7.5 7.5zM274.376 174.159a7.501 7.501 0 0 1-5.309-12.798l7.284-7.298a7.5 7.5 0 0 1 10.617 10.597l-7.284 7.298a7.48 7.48 0 0 1-5.308 2.201z"/></g><path d="M51.579 18.4a.245.245 0 0 0-.14-.14 7.811 7.811 0 0 0-8.428 1.743 7.848 7.848 0 0 0-2.292 5.434 4.494 4.494 0 0 1 4.842 3.608 7.813 7.813 0 0 0 4.28-2.197 7.855 7.855 0 0 0 1.738-8.448z" fill="#89c947" stroke-width=".14"/><path d="M47.806 22.041a1.05 1.05 0 0 0-1.485.002l-3.632 3.641c.686.25 1.294.663 1.777 1.192l3.342-3.35a1.05 1.05 0 0 0-.002-1.484z" fill="#d5e962" stroke-width=".14"/><g transform="matrix(.14 0 0 .14 0 -3.842)" fill="#ffc502"><path d="M379.175 244.754a27.39 27.39 0 0 1 .396 4.629c.001.518.397.949.912.995 4.059.357 7.929 1.615 11.502 3.739a1 1 0 0 0 1.265-.202 50.08 50.08 0 0 1 2.304-2.489c6.036-6.05 13.335-10.368 21.294-12.722a33.174 33.174 0 0 0 1.152-8.669c0-18.283-14.788-33.106-33.031-33.106-15.558 0-28.597 10.785-32.099 25.3a27.12 27.12 0 0 1 26.305 22.525zM152.809 289.091a51.54 51.54 0 0 1-6.279-19.142 30.126 30.126 0 0 1-22.259-16.599c-13.884 3.918-24.065 16.694-24.065 31.862 0 1.314.1 2.604.249 3.878h52.354z"/></g><path d="M56.688 34.354c.135.78.027 1.566-.31 2.279h5.942a7.213 7.213 0 0 0 .83-6.844.23.23 0 0 0-.128-.13 7.174 7.174 0 0 0-8.161 2.065 3.805 3.805 0 0 1 1.827 2.63z" fill="#89c947" stroke-width=".14"/><path d="M56.377 36.633h1.3l2.07-2.076a1.05 1.05 0 1 0-1.487-1.483l-1.537 1.542a3.772 3.772 0 0 1-.345 2.017z" fill="#d5e962" stroke-width=".14"/><path d="M38.037 26.632a4.37 4.37 0 0 0-3.878-3.398 4.373 4.373 0 0 0-5.125-4.302 4.375 4.375 0 0 0-2.904 1.9 4.38 4.38 0 0 0-6.75 4.975 4.37 4.37 0 1 0 1.13 8.287 7.056 7.056 0 0 1 .43-3.618.089.089 0 0 1 .05-.05c.835-.332 1.712-.5 2.606-.5a6.995 6.995 0 0 1 5.263 2.367 9.648 9.648 0 0 1-.113-1.472c0-.34.276-.617.615-.617h7.332a4.626 4.626 0 0 1 1.344-3.572z" fill="#368c0e" stroke-width=".14"/><g transform="matrix(.14 0 0 .14 0 -3.842)" fill="#89c947"><path d="M162.155 220.587l-.13-.001a7.5 7.5 0 0 1-7.372-7.626c.22-12.985 10.87-23.408 23.82-23.408l.381.003a23.874 23.874 0 0 1 17.192 7.741 7.501 7.501 0 0 1-11.076 10.117 8.698 8.698 0 0 0-6.351-2.859c-4.875-.079-8.887 3.809-8.969 8.661a7.5 7.5 0 0 1-7.495 7.372zM203.559 233.492a7.5 7.5 0 0 1-7.031-10.11c4.184-11.279 16.771-17.067 28.063-12.902a21.899 21.899 0 0 1 12.521 11.933 7.5 7.5 0 0 1-3.969 9.836 7.5 7.5 0 0 1-9.836-3.969 6.754 6.754 0 0 0-3.91-3.728c-3.547-1.308-7.493.508-8.805 4.046a7.503 7.503 0 0 1-7.033 4.894z"/></g><path d="M45.636 30.193h-.039v.03h1.406c.417 0 .756.338.756.756 0 2.11-.681 4.061-1.829 5.654h10.598a3.925 3.925 0 0 0 .298-2.303 3.948 3.948 0 0 0-3.544-3.257 3.95 3.95 0 0 0-4.63-3.885 3.952 3.952 0 0 0-2.622 1.716 3.965 3.965 0 0 0-.6-.368 4.488 4.488 0 0 1 .206 1.657z" fill="#368c0e" stroke-width=".14"/><path d="M45.774 30.204a4.63 4.63 0 0 0-4.614-4.93 4.63 4.63 0 0 0-4.613 4.93z" fill="#f7931e" stroke-width=".14"/><path d="M28.68 31.897a7.174 7.174 0 0 0-7.741-1.6.236.236 0 0 0-.129.128 7.214 7.214 0 0 0 .425 6.208h9.532a9.662 9.662 0 0 1-1.85-4.486 7.197 7.197 0 0 0-.237-.25z" fill="#89c947" stroke-width=".14"/><path d="M25.65 36.633h2.966L25.7 33.71a1.05 1.05 0 0 0-1.487 1.483z" fill="#d5e962" stroke-width=".14"/><path d="M46.001 36.633a9.65 9.65 0 0 0 1.942-5.812.756.756 0 0 0-.755-.757H29.36a.756.756 0 0 0-.755.757c0 2.18.725 4.191 1.942 5.812z" fill="#ef5050" stroke-width=".14"/><g transform="matrix(.14 0 0 .14 0 -3.842)" fill="#c0272d"><path d="M281.15 289.091v-5.188a7.5 7.5 0 0 0-7.5-7.5 7.5 7.5 0 0 0-7.5 7.5v5.188zM295.539 289.091h11.663a7.5 7.5 0 0 0-.496-10.045l-7.281-7.298a7.5 7.5 0 0 0-10.606-.013 7.5 7.5 0 0 0-.013 10.606zM250.579 289.091l6.732-6.748a7.5 7.5 0 0 0-10.618-10.595l-7.282 7.298a7.5 7.5 0 0 0-.498 10.044zM239.048 268.865H228.75a7.5 7.5 0 0 1-7.5-7.5 7.5 7.5 0 0 1 7.5-7.5h10.298a7.5 7.5 0 0 1 0 15zM318.006 268.865h-10.299a7.5 7.5 0 0 1 0-15h10.299a7.5 7.5 0 0 1 0 15z"/></g><path d="M13.018 43.873a.142.142 0 0 0 .123-.023.14.14 0 0 0 .055-.112v-1.777a.911.911 0 0 1 1.82 0v1.777a.14.14 0 0 0 .178.135c.736-.207 1.605-.317 2.512-.317 2.55 0 4.262.826 4.262 1.598 0 .1-.03.204-.09.31a.14.14 0 0 0 .068.198c3.263 1.345 5.575 4.199 6.035 7.447a.14.14 0 0 0 .188.111l22.104-8.397a3.764 3.764 0 0 1 3.168.233 3.719 3.719 0 0 1 1.847 2.574l.192 1.04a.14.14 0 0 0 .21.094l7.43-4.387c.64-2.275.963-4.635.963-7.058 0-.4-.324-.726-.724-.726H12.796c-.4 0-.725.325-.725.726 0 2.233.277 4.412.82 6.521.042.011.085.021.127.033z" fill="#e6e9ed" stroke-width=".14"/><path d="M13.018 43.873a.142.142 0 0 0 .123-.023.14.14 0 0 0 .055-.112v-1.777a.911.911 0 0 1 1.82 0v1.777a.14.14 0 0 0 .178.135 9.113 9.113 0 0 1 2.124-.31 26.146 26.146 0 0 1-.748-6.244c0-.4.324-.726.724-.726h-4.498c-.4 0-.725.325-.725.726 0 2.233.277 4.412.82 6.52l.127.034z" opacity=".1" stroke-width=".14"/><path d="M14.106 44.373a4.87 4.87 0 0 1 1.05-.417v-1.995a1.05 1.05 0 1 0-2.1 0v1.995c.406.115.762.255 1.05.417z" fill="#89c947" stroke-width=".14"/><path d="M24.833 63.858l-3.793.002h-.001a3.739 3.739 0 0 1-3.68-3.05l-.038-.202a3.725 3.725 0 0 1 2.347-4.158l8.472-3.218c-.436-3.49-2.895-6.412-6.272-7.753-.328.55-1.456 1.03-2.925 1.202a.14.14 0 1 0-.071.248c.761.61 1.24 1.252 1.28 1.718a.53.53 0 0 1-.128.42c-.178.201-.53.308-1.015.308-.945 0-2.224-.395-3.42-1.057a8.625 8.625 0 0 1-1.393-.948.14.14 0 0 0-.18 0 8.604 8.604 0 0 1-1.394.948c-1.196.662-2.474 1.057-3.42 1.057-.485 0-.836-.107-1.015-.308a.53.53 0 0 1-.127-.42c.04-.466.518-1.108 1.28-1.717a.14.14 0 0 0-.072-.249c-1.47-.173-2.598-.652-2.925-1.203C2.613 46.959 0 50.37 0 54.345 0 59.677 4.702 64 10.501 64h14.56c.157 0 .036-.056-.228-.142z" fill="#ef5050" stroke-width=".14"/><path d="M4.543 54.345c0-3.167 1.659-5.978 4.221-7.739-1.22-.213-2.132-.642-2.42-1.128C2.611 46.959 0 50.371 0 54.345 0 59.677 4.702 64 10.501 64h4.543c-5.8 0-10.5-4.323-10.5-9.655z" opacity=".1" stroke-width=".14"/><path d="M22.108 45.154c0-.96-1.97-1.738-4.401-1.738-1.49 0-2.805.292-3.601.74-.796-.448-2.112-.74-3.601-.74-2.43 0-4.401.778-4.401 1.738 0 .788 1.328 1.452 3.147 1.666-1.113.89-1.623 1.827-1.169 2.34.601.678 2.664.356 4.607-.72a8.775 8.775 0 0 0 1.416-.964c.393.333.871.662 1.416.964 1.944 1.076 4.007 1.398 4.608.72.453-.513-.056-1.45-1.17-2.34 1.821-.214 3.149-.878 3.149-1.666z" fill="#368c0e" stroke-width=".14"/><path d="M71.667 51.371l-.282-1.52a.97.97 0 0 0-1.13-.776l-10.883 2 6.948-4.646a.967.967 0 0 0 .305-1.277l-.786-1.392a.973.973 0 0 0-1.341-.358l-9.04 5.336 1.71 9.232 10.369 1.863a.973.973 0 0 0 1.132-.81l.234-1.572a.969.969 0 0 0-.742-1.084l-8.155-1.87 10.882-2a.967.967 0 0 0 .78-1.126z" fill="#89c947" stroke-width=".14"/><path d="M17.22 60.834A3.879 3.879 0 0 0 21.04 64l32.757-.013a3.89 3.89 0 0 0 2.983-1.393 3.855 3.855 0 0 0 .834-3.175l-2.188-11.815a3.869 3.869 0 0 0-1.917-2.67 3.898 3.898 0 0 0-3.286-.242L19.618 56.32a3.865 3.865 0 0 0-2.435 4.314z" fill="#f7931e" stroke-width=".14"/><path d="M17.22 60.834c.053.282.138.55.246.805a4.044 4.044 0 0 1 2.092-1.799L51.52 47.698a4.07 4.07 0 0 1 4.049.679l-.143-.773a3.869 3.869 0 0 0-1.917-2.67 3.898 3.898 0 0 0-3.286-.242L19.618 56.32a3.865 3.865 0 0 0-2.435 4.314z" opacity=".1"/><g transform="matrix(.14 0 0 .14 0 -3.842)" fill="#ffc502"><path d="M370.837 449.389a7.5 7.5 0 0 0-14.732 2.818l6.174 32.272 15.271-.006zM330.183 458.282a7.5 7.5 0 0 0-14.74 2.778l4.418 23.435 15.263-.006zM290.439 401.794a7.503 7.503 0 0 0 7.268 5.67 7.5 7.5 0 0 0 7.279-9.334l-7.139-28.35-14.118 5.364zM251.413 451.746a7.5 7.5 0 0 0-14.762 2.662l5.431 30.117 15.241-.006zM175.752 437.728a7.5 7.5 0 1 0 14.68-3.081l-4.677-22.283-14.194 5.392z"/></g></svg><svg id="facebook" data-name="Layer 1" width="21.23" height="42.01" viewBox="0 0 21.23 42.01" x="206.4" y="60.089" xmlns="http://www.w3.org/2000/svg"><defs><style>.dcls-1{fill:#fff}</style></defs><title>facebook</title><path class="dcls-1" d="M21.23.31V7H17.4a3.55 3.55 0 0 0-2.85.91 4.26 4.26 0 0 0-.74 2.72v4.77H21l-1 7.47h-6.19V42H6.27V22.85H0v-7.47h6.27V9.85q0-4.69 2.55-7.28A9 9 0 0 1 15.63 0a39.57 39.57 0 0 1 5.6.31z"/></svg><svg id="fire" data-name="Layer 1" width="56" height="64" viewBox="0 0 56 64" x="124.37700000000001" y="183.619" xmlns="http://www.w3.org/2000/svg"><defs><style>.ecls-1{fill:#d4953d}</style></defs><title>Untitled-2</title><path class="ecls-1" d="M16 0C24 16 0 24 0 40s16 24 16 24C8.16 48.16 32 40 32 24S16 0 16 0zm24 24c8 16-16 24-16 40h24c3.2 0 8-4 8-16 0-16-16-24-16-24z"/></svg><svg viewBox="0 0 72.748215 64" width="72.748" height="64" id="fitness" x="84.021" y="119.619" xmlns="http://www.w3.org/2000/svg"><g transform="matrix(.14209 0 0 .14209 0 -4.374)"><path d="M386.902 322.816c-44.7 81.599-125.003 138.6-216.204 156.899l-6.899 1.5-8.101-3.898c-87.898-70.501-142.5-171.3-153.596-281.7C.601 181.816 0 167.717 0 153.616v-17.999c0-31.201 13.799-60.3 37.5-80.4 23.701-20.101 55.203-28.2 86.4-22.8 43.502 7.5 78.3 43.5 84.899 87.299 4.2 27.001-2.399 54.3-17.999 75.901-2.399 3.9-5.402 7.5-8.397 10.8 14.7 15 24.298 36.301 26.997 60 1.802 17.999-.601 36-6.599 52.8 32.102-4.2 64.102-16.8 88.997-38.101z" fill="#ffcebf"/><path d="M291.797 281.116l95.105 41.7c-44.7 81.599-125.003 138.6-216.204 156.899l-6.899 1.5-8.101-3.898c-87.898-70.501-142.5-171.3-153.596-281.7H190.8c-2.399 3.9-5.402 7.5-8.397 10.8 14.7 15 24.298 36.301 26.997 60 1.802 17.999-.601 36-6.599 52.8 32.101-4.201 64.101-16.8 88.996-38.101z" fill="#ffb99c"/><path d="M377 60.617c-74.399 0-135 60.599-135 135 0 74.399 60.601 135 135 135s135-60.601 135-135c0-74.401-60.601-135-135-135z" fill="#61729b"/><path d="M512 195.617c0 74.399-60.601 135-135 135s-135-60.601-135-135zM334.577 131.98l31.816 31.816-21.21 21.211-31.817-31.816z" fill="#47568c"/><path fill="#2c3b73" d="M408.815 206.219l31.816 31.816-21.21 21.21-31.817-31.815zM345.183 206.218l21.21 21.21-31.815 31.817-21.211-21.211z"/><path fill="#47568c" d="M419.42 131.98l21.211 21.211-31.816 31.816-21.21-21.21z"/><path d="M377 150.617c-24.902 0-45 20.099-45 45 0 24.899 20.098 45 45 45s45-20.101 45-45c0-24.901-20.098-45-45-45z" fill="#47568c"/><path d="M422 195.617c0 24.899-20.098 45-45 45s-45-20.101-45-45z" fill="#2c3b73"/></g></svg><svg id="globe" data-name="Layer 1" width="64" height="64" viewBox="0 0 64 64" x="282.484" xmlns="http://www.w3.org/2000/svg"><defs><style>.gcls-1{fill:#d4953f}</style></defs><title>globe</title><path class="gcls-1" d="M32 0a32 32 0 1 0 32 32A32 32 0 0 0 32 0zm0 8a23.75 23.75 0 0 1 7.52 1.52c-1.68 1.6-3.6 3-3.28 4.48s5.52 1 5.52 4c0 2.16-3.36 2.8-1 5.28 2.8 2.8-5.12 7.84-5.28 11.52-.24 6.64 6.72 7.76 12.24 7.76 3.36 0 4.24 1.6 4 3.52a24.07 24.07 0 0 1-19.76 10 22.94 22.94 0 0 1-8.48-1.76c1.76-3.52-2.24-10.48-6-12.72-1.84-1.84-5.76-1.12-8-2a23.49 23.49 0 0 1-1.52-6.72 1.42 1.42 0 0 1 1.28-.72c1.52 0 3.6 3 4.72 2.72 1.4-.32-5.96-10.48-2.52-12.48 1.6-1 4.8 3.12 3.76-1.28-1-4.08 2.88-2.24 5.28-3.28 2.08-.88 3.6-3.28 1-4.72a8.55 8.55 0 0 1-1.76-1.52A23.75 23.75 0 0 1 32 8.08V8zm18.48 8.72A26.46 26.46 0 0 1 54 22.48v.24a11.78 11.78 0 0 1-1.76 1.76C50 26.72 49.68 22.8 48.72 22c-1-1-4.8.16-5.28-1-.56-1.48 4-3.4 7.04-4.28z"/></svg><svg height="64" viewBox="0 0 48 48" width="64" id="goal" y="183.619" xmlns="http://www.w3.org/2000/svg"><path d="M39.469 14.156l1.406-7.734L39.469 0H23.418l7.031 7.125-7.031 7.031zm0 0" fill="#ff7816" stroke-width=".094"/><path d="M39.469 0h2.812v25.406H39.47zm0 0" fill="#6e6e6e" stroke-width=".094"/><path d="M40.875 0h1.406v25.406h-1.406zm0 0" fill="#444" stroke-width=".094"/><path d="M33.844 22.594v5.625h-11.25v5.625h-11.25v5.625H0V48h48V22.594zm0 0" fill="#ffd400" stroke-width=".094"/><path d="M40.875 22.594H48V48h-7.125zm0 0" fill="#fdbf00" stroke-width=".094"/></svg><svg viewBox="-0.2 0 60.377361 64" width="60.377" height="64" id="idea" x="64" y="183.619" xmlns="http://www.w3.org/2000/svg"><path d="M29.989 10.868c-10.671 0-19.321 8.65-19.321 19.32 0 8.561 5.573 15.809 13.283 18.346v11.843h2.415V64h7.245v-3.623h2.415V48.534c7.71-2.537 13.283-9.785 13.283-18.345 0-10.67-8.65-19.321-19.32-19.321z" fill="#efce4a" stroke-width="1.208"/><g transform="matrix(1.20755 0 0 1.20755 -2.011 0)" fill="#efce4a"><path d="M26.5 0a1 1 0 0 0-1 1v4a1 1 0 1 0 2 0V1a1 1 0 0 0-1-1zM50.5 24h-4a1 1 0 1 0 0 2h4a1 1 0 1 0 0-2zM6.5 24h-4a1 1 0 1 0 0 2h4a1 1 0 1 0 0-2zM42.764 7.322l-2.828 2.828a.999.999 0 1 0 1.414 1.414l2.828-2.828a.999.999 0 1 0-1.414-1.414zM11.65 38.436l-2.828 2.828a.999.999 0 1 0 1.414 1.414l2.828-2.828a.999.999 0 1 0-1.414-1.414zM41.35 38.436a.999.999 0 1 0-1.414 1.414l2.828 2.828a.997.997 0 0 0 1.414 0 .999.999 0 0 0 0-1.414zM10.236 7.322a.999.999 0 1 0-1.414 1.414l2.828 2.828a.997.997 0 0 0 1.414 0 .999.999 0 0 0 0-1.414z"/></g><path d="M16.706 31.396c-.668 0-1.208-.54-1.208-1.207 0-7.99 6.5-14.49 14.49-14.49a1.206 1.206 0 1 1 0 2.414c-6.658 0-12.075 5.417-12.075 12.076 0 .667-.54 1.207-1.207 1.207z" fill="#f7e6a1" stroke-width="1.208"/><path fill="#556080" d="M33.611 60.377h2.415v-8.452H23.951v8.452h2.415V64h7.245z"/></svg><svg id="instagram" data-name="Layer 1" width="42.01" height="42.01" viewBox="0 0 42.01 42.01" x="227.63" y="60.089" xmlns="http://www.w3.org/2000/svg"><defs><style>.jcls-1{fill:#fff}</style></defs><title>instagram</title><path class="jcls-1" d="M37.25 35.49V17.77h-3.69a11.77 11.77 0 0 1 .57 3.58 12.12 12.12 0 0 1-1.75 6.36 12.76 12.76 0 0 1-4.76 4.59 13.13 13.13 0 0 1-6.56 1.7 12.78 12.78 0 0 1-9.19-3.71 12 12 0 0 1-3.83-9 11.77 11.77 0 0 1 .49-3.56H4.68v17.76a1.63 1.63 0 0 0 1.6 1.67h29.3a1.63 1.63 0 0 0 1.17-.47 1.59 1.59 0 0 0 .5-1.2zm-7.77-14.57A7.75 7.75 0 0 0 27 15.14a8.28 8.28 0 0 0-6-2.4 8.25 8.25 0 0 0-5.91 2.39 7.75 7.75 0 0 0-2.47 5.78 7.75 7.75 0 0 0 2.47 5.79A8.25 8.25 0 0 0 21 29.1a8.28 8.28 0 0 0 6-2.4 7.75 7.75 0 0 0 2.48-5.78zm7.76-9.84V6.56a1.84 1.84 0 0 0-.54-1.31 1.8 1.8 0 0 0-1.31-.56h-4.78a1.8 1.8 0 0 0-1.31.56 1.84 1.84 0 0 0-.54 1.31v4.52A1.87 1.87 0 0 0 30.6 13h4.8a1.87 1.87 0 0 0 1.85-1.89zM42 5.39v31.23A5.41 5.41 0 0 1 36.62 42H5.39a5.19 5.19 0 0 1-3.8-1.59A5.19 5.19 0 0 1 0 36.62V5.39a5.19 5.19 0 0 1 1.59-3.8A5.19 5.19 0 0 1 5.39 0h31.23a5.19 5.19 0 0 1 3.8 1.59A5.19 5.19 0 0 1 42 5.39z"/></svg><svg width="282.484" height="60.089" viewBox="0 0 74.740574 15.898546" id="liliana_consulting" xmlns="http://www.w3.org/2000/svg"><g transform="translate(-45.545 -33.804)" font-weight="400" font-family="sans-serif" letter-spacing="0" word-spacing="0" fill="#e6e6e6"><text style="line-height:1.25" x="44.687" y="40.536" font-size="4.159" stroke-width=".104"><tspan x="44.687" y="40.536" style="-inkscape-font-specification:'Segoe Script'" font-size="8.873" font-family="Segoe Script">Liliana Aguilar</tspan></text><flowRoot xml:space="preserve" style="line-height:1.25" transform="matrix(.10398 0 0 .10398 41.597 27.203)" font-style="normal" font-size="40" fill-opacity="1" stroke="none"><flowRegion fill="#e6e6e6"><path d="M-102.857 188.234h365.714v145.714h-365.714z"/></flowRegion><flowPara/></flowRoot><text style="line-height:1.25" x="54.253" y="48.557" font-size="4.159" stroke-width=".104"><tspan x="54.253" y="48.557" font-size="5.545">Health Management</tspan></text></g></svg><svg id="mail" data-name="Layer 1" width="64" height="48" viewBox="0 0 64 48" x="142.4" y="60.089" xmlns="http://www.w3.org/2000/svg"><defs><style>.lcls-1{fill:#2f5572}</style></defs><title>mail</title><path class="lcls-1" d="M0 0v8l32 16L64 8V0H0zm0 16v32h64V16L32 32z"/></svg><svg viewBox="0 0 84.020508 64" width="84.021" height="64" id="measuring-tape" y="119.619" xmlns="http://www.w3.org/2000/svg"><g transform="matrix(.1641 0 0 .1641 0 -10.01)"><path fill="#ff641a" d="M300 181l-77.97-41.583L90 196 60 316h240z"/><path d="M391 344.2v56.4L360 451h-30l-16.802-14.401L300 451h-30l-13.799-12.601L240 451h-30l-13.198-13.2L180 451h-15c-5.098 0-10.203-.3-15-.901l-13.799-19.2-16.201 13.8C50.999 425.2 0 361.3 0 286V181l30 15c0 54.899 51.599 98.699 120 104.399 5.098.3 9.902.601 15 .601h195z" fill="#ffda2d"/><path d="M391 344.2v56.4L360 451h-30l-16.802-14.401L300 451h-30l-13.799-12.601L240 451h-30l-13.198-13.2L180 451h-15c-5.098 0-10.203-.3-15-.901v-149.7c5.098.3 9.902.601 15 .601h195z" fill="#fdbf00"/><path d="M300 181c0 67.2-65.999 120-150 120S0 248.2 0 181 65.999 61 150 61s150 52.8 150 120z" fill="#fdbf00"/><path d="M512 451H360V301h152z" fill="#d8d8fc"/><path fill="#47568c" d="M421 361h30v30h-30z"/><path fill="#ff641a" d="M300 361h30v90h-30zM240 391h30v60h-30zM180 361h30v90h-30z"/><path d="M150 391v59.099c-10.203-.599-20.398-2.699-30-5.4V391zM300 181c0 67.2-65.999 120-150 120V61c84.001 0 150 52.8 150 120z" fill="#ff9100"/><path d="M150 106c-58.799 0-105 32.999-105 75 0 41.999 46.201 75 105 75s105-33.001 105-75c0-42.001-46.201-75-105-75z" fill="#ffda2d"/><path d="M255 181c0 41.999-46.201 75-105 75V106c58.799 0 105 32.999 105 75z" fill="#fdbf00"/><path fill="#fdbf00" d="M105 166h90v30h-90z"/><path fill="#ff9100" d="M150 166h45v30h-45z"/></g></svg><svg id="rain" data-name="Layer 1" width="64" height="64" viewBox="0 0 64 64" x="282.484" y="64" xmlns="http://www.w3.org/2000/svg"><defs><style>.ncls-1{fill:#d4953f}</style></defs><title>rain</title><path class="ncls-1" d="M36 0a20.42 20.42 0 0 0-20 16A16 16 0 0 0 0 32a15.4 15.4 0 0 0 4.27 10.72A11.88 11.88 0 0 1 12 40a10.51 10.51 0 0 1 4.47 1A12 12 0 0 1 28 32a12.06 12.06 0 0 1 11.51 9A11.84 11.84 0 0 1 44 40a11.94 11.94 0 0 1 11 7.52A12.07 12.07 0 0 0 64 36c0-5.2-3.36-10.32-8-12v-4A20 20 0 0 0 36 0zm-9.27 40A4 4 0 0 0 24 44v16a4 4 0 1 0 8 0V44a4 4 0 0 0-4.71-4h-.56zm-16 8A4 4 0 0 0 8 52v8a4 4 0 1 0 8 0v-8a4 4 0 0 0-4.71-4h-.54zm32 0A4 4 0 0 0 40 52v8a4 4 0 1 0 8 0v-8a4 4 0 0 0-4.71-4h-.58z" transform="translate(-.04)"/></svg><svg id="star" data-name="Layer 1" width="64" height="64" viewBox="0 0 64 64" x="282.484" y="128" xmlns="http://www.w3.org/2000/svg"><defs><style>.ocls-1{fill:#d4953f}</style></defs><title>star</title><path class="ocls-1" d="M32 0l-8 24H0l20 16-8 24 20-16 20 16-8-24 20-16H40z"/></svg><svg id="twitter" data-name="Layer 1" width="51.78" height="42.06" viewBox="0 0 51.78 42.06" x="282.484" y="192" xmlns="http://www.w3.org/2000/svg"><defs><style>.pcls-1{fill:#fff}</style></defs><title>twitter</title><path class="pcls-1" d="M51.78 5a22.23 22.23 0 0 1-5.32 5.52v1.38a30.15 30.15 0 0 1-1.25 8.53 30.81 30.81 0 0 1-3.76 8.13 32.1 32.1 0 0 1-6.06 6.92 27 27 0 0 1-8.48 4.8 31 31 0 0 1-10.62 1.8A29.47 29.47 0 0 1 0 37.29a22.71 22.71 0 0 0 2.56.13 20.78 20.78 0 0 0 13.17-4.53 10.63 10.63 0 0 1-9.92-7.36 13.45 13.45 0 0 0 2 .16 11 11 0 0 0 2.79-.36 10.44 10.44 0 0 1-6.09-3.67 10.25 10.25 0 0 1-2.41-6.75v-.13a10.52 10.52 0 0 0 4.8 1.34 10.6 10.6 0 0 1-3.45-3.78 10.34 10.34 0 0 1-1.28-5.07 10.4 10.4 0 0 1 1.45-5.33 30.08 30.08 0 0 0 9.71 7.83A29.57 29.57 0 0 0 25.53 13a11.79 11.79 0 0 1-.26-2.43 10.23 10.23 0 0 1 3-7.48 10.64 10.64 0 0 1 15 0l.21.22A20.81 20.81 0 0 0 50.33.8a10.3 10.3 0 0 1-4.67 5.85A21.14 21.14 0 0 0 51.78 5z"/></svg><svg id="wifi" data-name="Layer 1" width="60" height="64" viewBox="0 0 60 64" x="180.377" y="183.619" xmlns="http://www.w3.org/2000/svg"><defs><style>.qcls-1{fill:#d4953e}</style></defs><title>wifi</title><path class="qcls-1" d="M29.88 0A55.39 55.39 0 0 0 0 8.72l4.22 6.48a47.32 47.32 0 0 1 25.66-7.28 47.31 47.31 0 0 1 25.9 7.28L60 8.72A55.53 55.53 0 0 0 29.88 0zm0 24a31.08 31.08 0 0 0-17 5l4.22 6.72A23.09 23.09 0 0 1 29.8 32a24.17 24.17 0 0 1 13 3.76L47 29a32.37 32.37 0 0 0-17.2-5h.07zm0 24a8 8 0 1 0 8 8 8 8 0 0 0-8-8z"/></svg><svg id="youtube" data-name="Layer 1" width="34.75" height="42" viewBox="0 0 34.75 42" x="228.452" y="119.619" xmlns="http://www.w3.org/2000/svg"><defs><style>.rcls-1{fill:#fff}</style></defs><title>youtube</title><path class="rcls-1" d="M22.13 29.15v5q0 1.57-.91 1.57a1.5 1.5 0 0 1-1.06-.52v-7.11a1.5 1.5 0 0 1 1.06-.54q.91 0 .91 1.6zm7.92 0v1.08h-2.1v-1.06q0-1.59 1.06-1.59t1 1.59zM7.42 24h2.5v-2.14h-7.3v2.2h2.46V37.4h2.34V24zm6.75 13.4h2.09V25.82h-2.09v8.86a1.86 1.86 0 0 1-1.31 1 .48.48 0 0 1-.49-.47 6.52 6.52 0 0 1 0-.82v-8.57h-2.14V35a5.79 5.79 0 0 0 .19 1.71 1.26 1.26 0 0 0 1.36.87 3.43 3.43 0 0 0 2.39-1.43v1.25zm10.05-3.47v-4.6A8.33 8.33 0 0 0 24 27a1.63 1.63 0 0 0-1.67-1.31A2.82 2.82 0 0 0 20.16 27v-5.1h-2.08v15.5h2.09v-1.13a2.91 2.91 0 0 0 2.18 1.31A1.62 1.62 0 0 0 24 36.27a8.61 8.61 0 0 0 .22-2.35zm7.92-.24v-.3H30a11.6 11.6 0 0 1 0 1.43.9.9 0 0 1-.94.85q-1.08 0-1.08-1.61V32h4.19v-2.41a4.65 4.65 0 0 0-.66-2.72 3.2 3.2 0 0 0-5 0 4.52 4.52 0 0 0-.66 2.72v4.05a4.4 4.4 0 0 0 .66 2.72 3 3 0 0 0 2.49 1.2 2.9 2.9 0 0 0 3-2.51 10.31 10.31 0 0 0 .09-1.36zM17.89 12.3V7.38q0-1.61-1-1.61t-1 1.61v4.92q0 1.64 1 1.64t1-1.64zm16.85 17.6a40.6 40.6 0 0 1-.61 8.2 4.45 4.45 0 0 1-1.36 2.32 4.1 4.1 0 0 1-2.39 1.08 125.31 125.31 0 0 1-13 .49 125.31 125.31 0 0 1-13-.49A4.15 4.15 0 0 1 2 40.42 4.28 4.28 0 0 1 .63 38.1 39.76 39.76 0 0 1 0 29.9a40.6 40.6 0 0 1 .61-8.2A4.45 4.45 0 0 1 2 19.37a4.25 4.25 0 0 1 2.41-1.1q4.29-.47 13-.47t13 .47a4.4 4.4 0 0 1 3.75 3.42 39.76 39.76 0 0 1 .58 8.21zM11.35 0h2.39l-2.83 9.35v6.35H8.57V9.35a39.68 39.68 0 0 0-1.43-5Q6.27 2 5.61 0H8.1l1.67 6.16zM20 7.8v4.1a4.59 4.59 0 0 1-.66 2.76 2.88 2.88 0 0 1-2.49 1.19 2.9 2.9 0 0 1-2.46-1.19 4.68 4.68 0 0 1-.66-2.76V7.8a4.59 4.59 0 0 1 .66-2.74 2.9 2.9 0 0 1 2.46-1.19 2.88 2.88 0 0 1 2.49 1.19A4.59 4.59 0 0 1 20 7.8zM27.87 4v11.7h-2.13v-1.27a3.37 3.37 0 0 1-2.41 1.45A1.31 1.31 0 0 1 22 15a6 6 0 0 1-.19-1.76V4h2.13v8.6a6.14 6.14 0 0 0 0 .82.49.49 0 0 0 .47.52 1.87 1.87 0 0 0 1.31-1V4h2.16z"/></svg></svg>