<?xml version="1.0" encoding="UTF-8" standalone="no"?>
<!-- Generator: Adobe Illustrator 19.0.0, SVG Export Plug-In . SVG Version: 6.00 Build 0)  -->

<svg
   xmlns:dc="http://purl.org/dc/elements/1.1/"
   xmlns:cc="http://creativecommons.org/ns#"
   xmlns:rdf="http://www.w3.org/1999/02/22-rdf-syntax-ns#"
   xmlns:svg="http://www.w3.org/2000/svg"
   xmlns="http://www.w3.org/2000/svg"
   xmlns:sodipodi="http://sodipodi.sourceforge.net/DTD/sodipodi-0.dtd"
   xmlns:inkscape="http://www.inkscape.org/namespaces/inkscape"
   version="1.1"
   id="Capa_1"
   x="0px"
   y="0px"
   viewBox="0 0 71.683334 64.000008"
   xml:space="preserve"
   sodipodi:docname="diet.svg"
   width="71.683334"
   height="64.000008"
   inkscape:version="0.92.4 (5da689c313, 2019-01-14)"><metadata
   id="metadata137"><rdf:RDF><cc:Work
       rdf:about=""><dc:format>image/svg+xml</dc:format><dc:type
         rdf:resource="http://purl.org/dc/dcmitype/StillImage" /><dc:title></dc:title></cc:Work></rdf:RDF></metadata><defs
   id="defs135" /><sodipodi:namedview
   pagecolor="#ffffff"
   bordercolor="#666666"
   borderopacity="1"
   objecttolerance="10"
   gridtolerance="10"
   guidetolerance="10"
   inkscape:pageopacity="0"
   inkscape:pageshadow="2"
   inkscape:window-width="1920"
   inkscape:window-height="1001"
   id="namedview133"
   showgrid="false"
   fit-margin-top="0"
   fit-margin-left="0"
   fit-margin-right="0"
   fit-margin-bottom="0"
   inkscape:zoom="0.4609375"
   inkscape:cx="256"
   inkscape:cy="228.561"
   inkscape:window-x="-9"
   inkscape:window-y="-9"
   inkscape:window-maximized="1"
   inkscape:current-layer="Capa_1" />
<rect
   x="8.5126677"
   y="6.4516392"
   style="fill:#48c1e1;stroke-width:0.14000639"
   width="7.2488308"
   height="4.8370805"
   id="rect2" />
<path
   style="fill:#046699;stroke-width:0.14000639"
   d="m 17.256627,5.9191947 c 0,0.39664 -0.324394,0.72117 -0.721033,0.72117 H 7.7385731 c -0.3966381,0 -0.7210329,-0.32453 -0.7210329,-0.72117 V 0.72117466 c 0,-0.39664 0.3243948,-0.72116999521 0.7210329,-0.72116999521 h 8.7968809 c 0.396639,0 0.721033,0.32452999521 0.721033,0.72116999521 z"
   id="path4"
   inkscape:connector-curvature="0" />
<g
   style="opacity:0.1"
   id="g8"
   transform="matrix(0.14000639,0,0,0.14000639,0,-3.8416353)">
	<path
   d="M 71.606,69.717 V 32.59 c 0,-2.833 2.317,-5.151 5.151,-5.151 H 55.273 c -2.833,0 -5.15,2.318 -5.15,5.151 v 37.127 c 0,2.833 2.317,5.151 5.15,5.151 h 21.484 c -2.833,0 -5.151,-2.318 -5.151,-5.151 z"
   id="path6"
   inkscape:connector-curvature="0" />
</g>
<path
   style="fill:#a2dff9;stroke-width:0.14000639"
   d="m 6.2655659,45.662105 c 0.037102,-0.0153 0.065943,-0.0458 0.078964,-0.0837 0.013161,-0.0379 0.00924,-0.0797 -0.01036,-0.11453 -0.060063,-0.10612 -0.090444,-0.21043 -0.090444,-0.30983 0,-0.77172 1.7121381,-1.59789 4.2612341,-1.59789 0.820298,0 1.619454,0.0911 2.311086,0.26377 0.0112,0.003 0.02254,0.004 0.03388,0.004 0.03668,0 0.07238,-0.0144 0.09899,-0.041 0.03486,-0.0349 0.04886,-0.0853 0.03682,-0.13287 -0.4448,-1.77542 -0.699471,-3.60012 -0.759254,-5.46487 -8.4e-4,-0.0217 -0.0022,-0.0434 -0.0029,-0.0652 -0.008,-0.26615 -0.01218,-0.53315 -0.01218,-0.80084 0,-0.32285 0.261952,-0.5855 0.584107,-0.5855 h 1.264958 c 0.03976,0 0.07784,-0.0169 0.104304,-0.0466 0.02646,-0.0297 0.0392,-0.0693 0.03486,-0.10892 -0.02072,-0.18551 -0.03038,-0.3405 -0.03038,-0.48792 0,-1.97269 1.261458,-3.69561 3.139084,-4.28714 0.03864,-0.0122 0.07014,-0.0406 0.08624,-0.0778 0.01624,-0.0372 0.0154,-0.0797 -0.0022,-0.11621 -0.170528,-0.35575 -0.290094,-0.72761 -0.355617,-1.10507 -0.327055,-1.88742 0.66041,-3.76659 2.40111,-4.56981 0.0658,-0.0304 0.09758,-0.10598 0.07322,-0.1743 -0.08176,-0.22878 -0.143646,-0.46371 -0.184248,-0.6985 -0.265452,-1.53139 0.333495,-3.01657 1.442906,-3.957 v -6.01257 c 0,-2.2135 -1.806783,-4.02449 -4.015384,-4.02449 H 7.5196031 c -2.2083208,0 -4.0152432,1.81099 -4.0152432,4.02449 v 32.24025 c 0.8046167,-0.67819 1.732159,-1.24606 2.761206,-1.67 z"
   id="path10"
   inkscape:connector-curvature="0" />
<path
   style="fill:#046699;stroke-width:0.14000639"
   d="m 17.30843,31.802875 c 0.03864,-0.0122 0.07014,-0.0406 0.08624,-0.0778 0.01624,-0.0372 0.0154,-0.0797 -0.0022,-0.11621 -0.170528,-0.35575 -0.290094,-0.72761 -0.355617,-1.10507 -0.327055,-1.88742 0.66041,-3.76659 2.40111,-4.56981 0.0658,-0.0304 0.09758,-0.10598 0.07322,-0.1743 -0.08176,-0.22878 -0.143646,-0.46371 -0.184248,-0.6985 -0.265452,-1.53139 0.333495,-3.01657 1.442906,-3.957 v -2.70716 H 3.5043599 v 14.89696 H 15.141551 c 0.543085,-0.68463 1.285818,-1.21344 2.166879,-1.49107 z"
   id="path12"
   inkscape:connector-curvature="0" />
<path
   style="opacity:0.1;stroke-width:0.14000639;enable-background:new"
   d="m 7.8403577,43.916505 v -28.82479 c 0,-2.2135 1.8067825,-4.02449 4.0152433,-4.02449 H 7.5196031 c -2.2083208,0 -4.0152432,1.81099 -4.0152432,4.02449 v 32.24039 c 0.8046167,-0.67819 1.732159,-1.24592 2.761206,-1.67 0.037102,-0.0153 0.065943,-0.0458 0.078964,-0.0837 0.013161,-0.0379 0.00924,-0.0797 -0.01036,-0.11453 -0.060063,-0.10612 -0.090444,-0.21043 -0.090444,-0.30983 1.4e-4,-0.45348 0.592227,-0.92516 1.5966328,-1.23752 z"
   id="path14"
   inkscape:connector-curvature="0" />
<path
   style="fill:#ef5050;stroke-width:0.14000639"
   d="m 33.957149,22.514295 c 0.04046,0.23353 0.06132,0.47574 0.06174,0.72005 1.4e-4,0.0725 0.05544,0.13287 0.127686,0.13931 1.792222,0.1575 3.29071,1.43422 3.72921,3.17716 0.01204,0.048 0.04872,0.0861 0.09618,0.10011 0.01316,0.004 0.02632,0.006 0.03962,0.006 0.035,0 0.06916,-0.0132 0.09548,-0.0377 0.730273,-0.68113 1.639054,-1.09051 2.6282,-1.18375 0.07014,-0.007 0.124605,-0.0644 0.126705,-0.13483 0.0637,-1.96331 0.86202,-3.80957 2.248083,-5.19857 0.02898,-0.029 0.05922,-0.056 0.08862,-0.0846 -0.306614,-1.95477 -1.207415,-3.83323 -2.707164,-5.33634 -0.294993,-0.29541 -0.773115,-0.29555 -1.068528,0 l -6.145721,6.15986 c 0.335456,0.48918 0.572626,1.05537 0.679871,1.6735 z"
   id="path16"
   inkscape:connector-curvature="0" />
<g
   id="g24"
   transform="matrix(0.14000639,0,0,0.14000639,0,-3.8416353)">
	<path
   style="fill:#c0272d"
   d="m 270.528,217.079 c 0.086,0.343 0.348,0.615 0.687,0.715 0.094,0.028 0.188,0.041 0.283,0.041 0.25,0 0.494,-0.094 0.682,-0.269 2.548,-2.377 5.404,-4.282 8.48,-5.695 -0.344,-1.147 -0.967,-2.229 -1.872,-3.137 l -7.281,-7.299 c -2.924,-2.932 -7.673,-2.939 -10.606,-0.013 -0.022,0.021 -0.039,0.044 -0.06,0.066 4.664,3.977 8.122,9.368 9.687,15.591 z"
   id="path18"
   inkscape:connector-curvature="0" />
	<path
   style="fill:#c0272d"
   d="m 286.125,194.879 h -10.296 c -4.143,0 -7.5,-3.358 -7.5,-7.5 0,-4.142 3.357,-7.5 7.5,-7.5 h 10.296 c 4.143,0 7.5,3.358 7.5,7.5 0,4.143 -3.357,7.5 -7.5,7.5 z"
   id="path20"
   inkscape:connector-curvature="0" />
	<path
   style="fill:#c0272d"
   d="m 274.376,174.159 c -1.917,0 -3.834,-0.73 -5.298,-2.191 -2.932,-2.926 -2.936,-7.675 -0.011,-10.607 l 7.284,-7.298 c 2.926,-2.931 7.675,-2.936 10.606,-0.01 2.932,2.926 2.936,7.675 0.011,10.607 l -7.284,7.298 c -1.464,1.466 -3.386,2.201 -5.308,2.201 z"
   id="path22"
   inkscape:connector-curvature="0" />
</g>
<path
   style="fill:#89c947;stroke-width:0.14000639"
   d="m 51.578913,18.400065 c -0.01232,-0.0321 -0.0315,-0.0606 -0.0553,-0.0846 -0.02394,-0.024 -0.05236,-0.043 -0.08442,-0.0556 -2.908073,-1.15827 -6.216424,-0.47406 -8.428525,1.74294 -1.469507,1.47287 -2.263063,3.43072 -2.292044,5.43379 0.145326,-0.0143 0.292753,-0.022 0.44172,-0.022 2.177659,0 3.996762,1.56387 4.400541,3.62981 1.587952,-0.25874 3.091621,-1.00637 4.279295,-2.19671 2.211961,-2.21728 2.894492,-5.53305 1.738739,-8.4477 z"
   id="path26"
   inkscape:connector-curvature="0" />
<path
   style="fill:#d5e962;stroke-width:0.14000639"
   d="m 47.806301,22.041495 c -0.410499,-0.40966 -1.075389,-0.40896 -1.484908,0.002 l -3.632325,3.64058 c 0.685611,0.24991 1.293519,0.66293 1.777241,1.19202 l 3.341812,-3.34938 c 0.409659,-0.4105 0.408819,-1.07539 -0.0018,-1.4849 z"
   id="path28"
   inkscape:connector-curvature="0" />
<g
   id="g34"
   transform="matrix(0.14000639,0,0,0.14000639,0,-3.8416353)">
	<path
   style="fill:#ffc502"
   d="m 379.175,244.754 c 0.261,1.512 0.395,3.069 0.396,4.629 10e-4,0.518 0.397,0.949 0.912,0.995 4.059,0.357 7.929,1.615 11.502,3.739 0.159,0.095 0.335,0.141 0.511,0.141 0.28,0 0.558,-0.118 0.754,-0.343 0.853,-0.977 1.584,-1.768 2.304,-2.489 6.036,-6.05 13.335,-10.368 21.294,-12.722 0.747,-2.764 1.152,-5.668 1.152,-8.669 0,-18.283 -14.788,-33.106 -33.031,-33.106 -15.558,0 -28.597,10.785 -32.099,25.3 13.044,0.226 24.068,9.619 26.305,22.525 z"
   id="path30"
   inkscape:connector-curvature="0" />
	<path
   style="fill:#ffc502"
   d="m 152.809,289.091 c -3.349,-5.935 -5.469,-12.444 -6.279,-19.142 -9.746,-1.594 -18.02,-7.836 -22.259,-16.599 -13.884,3.918 -24.065,16.694 -24.065,31.862 0,1.314 0.1,2.604 0.249,3.878 h 52.354 z"
   id="path32"
   inkscape:connector-curvature="0" />
</g>
<path
   style="fill:#89c947;stroke-width:0.14000639"
   d="m 56.687746,34.354355 c 0.135247,0.78025 0.02772,1.56611 -0.310254,2.2786 h 5.942431 c 1.403284,-1.97073 1.74252,-4.54265 0.830098,-6.84435 -0.01162,-0.0293 -0.02898,-0.0556 -0.05096,-0.0776 -0.02198,-0.022 -0.0483,-0.0395 -0.07742,-0.0511 -2.670901,-1.06377 -5.70904,-0.43542 -7.740673,1.6007 -0.148407,0.14882 -0.287153,0.30423 -0.420439,0.46328 0.943083,0.55386 1.631494,1.50101 1.827223,2.63044 z"
   id="path36"
   inkscape:connector-curvature="0" />
<path
   style="fill:#d5e962;stroke-width:0.14000639"
   d="m 56.377492,36.632955 h 1.298559 l 2.071115,-2.07573 c 0.409659,-0.4105 0.408819,-1.07539 -0.0018,-1.48491 -0.410499,-0.40966 -1.075389,-0.40896 -1.484908,0.002 l -1.53769,1.54119 c 0.07224,0.69345 -0.04494,1.38466 -0.345256,2.01777 z"
   id="path38"
   inkscape:connector-curvature="0" />
<path
   style="fill:#368c0e;stroke-width:0.14000639"
   d="m 38.036515,26.631885 c -0.421279,-1.88589 -2.017632,-3.23443 -3.877617,-3.39782 -4.2e-4,-0.24543 -0.0203,-0.49394 -0.0637,-0.74385 -0.412459,-2.37955 -2.678743,-3.97269 -5.061651,-3.55785 -1.236957,0.21533 -2.260823,0.93007 -2.903733,1.89933 -0.930902,-0.69541 -2.135657,-1.02205 -3.372614,-0.80686 -2.383328,0.41498 -3.980661,2.68057 -3.567922,5.06011 0.04312,0.24992 0.107804,0.49073 0.190268,0.72174 -1.75848,0.81133 -2.826309,2.72536 -2.480493,4.72087 0.326775,1.88631 1.819103,3.27699 3.610905,3.56625 -0.173608,-1.20294 -0.0343,-2.44452 0.430659,-3.61735 0.0045,-0.0115 0.0112,-0.0216 0.02002,-0.0305 0.0085,-0.009 0.0189,-0.0153 0.03024,-0.0199 0.834158,-0.33224 1.710878,-0.5008 2.605519,-0.5008 1.881825,0 3.651926,0.73517 4.984087,2.07027 0.09632,0.0967 0.188729,0.19657 0.278753,0.29793 -0.07448,-0.48274 -0.113125,-0.97416 -0.113125,-1.47216 0,-0.34022 0.275952,-0.61701 0.615188,-0.61701 h 7.331294 c -0.0063,-0.0975 -0.01092,-0.19545 -0.01092,-0.29458 0,-1.27993 0.517743,-2.43891 1.354842,-3.27782 z"
   id="path40"
   inkscape:connector-curvature="0" />
<g
   id="g46"
   transform="matrix(0.14000639,0,0,0.14000639,0,-3.8416353)">
	<path
   style="fill:#89c947"
   d="m 162.155,220.587 c -0.044,0 -0.087,-10e-4 -0.13,-10e-4 -4.142,-0.07 -7.442,-3.484 -7.372,-7.626 0.22,-12.985 10.87,-23.408 23.82,-23.408 0.127,0 0.253,0.001 0.381,0.003 6.524,0.101 12.791,2.922 17.192,7.741 2.793,3.059 2.578,7.803 -0.48,10.596 -3.058,2.794 -7.802,2.579 -10.596,-0.479 -1.648,-1.806 -3.904,-2.821 -6.351,-2.859 -4.875,-0.079 -8.887,3.809 -8.969,8.661 -0.068,4.097 -3.413,7.371 -7.495,7.372 z"
   id="path42"
   inkscape:connector-curvature="0" />
	<path
   style="fill:#89c947"
   d="m 203.559,233.492 c -0.866,0 -1.747,-0.151 -2.606,-0.47 -3.884,-1.441 -5.865,-5.756 -4.425,-9.64 4.184,-11.279 16.771,-17.067 28.063,-12.902 5.616,2.074 10.18,6.423 12.521,11.933 1.62,3.812 -0.156,8.216 -3.969,9.836 -3.81,1.621 -8.215,-0.156 -9.836,-3.969 -0.743,-1.747 -2.132,-3.071 -3.91,-3.728 -3.547,-1.308 -7.493,0.508 -8.805,4.046 -1.121,3.024 -3.987,4.894 -7.033,4.894 z"
   id="path44"
   inkscape:connector-curvature="0" />
</g>
<path
   style="fill:#368c0e;stroke-width:0.14000639"
   d="m 45.635642,30.192945 h -0.03836 c -2.8e-4,0.01 -2.8e-4,0.0197 -7e-4,0.0295 h 1.406505 c 0.417359,0 0.755474,0.33895 0.755474,0.75701 0,2.1099 -0.680991,4.06075 -1.828063,5.65346 h 10.597923 c 0.316835,-0.69723 0.43766,-1.49177 0.297234,-2.30254 -0.312215,-1.80217 -1.801463,-3.10409 -3.543282,-3.25711 -2.8e-4,-0.22163 -0.01862,-0.4462 -0.05754,-0.67175 -0.372557,-2.14938 -2.41945,-3.58823 -4.571628,-3.21357 -1.117251,0.19475 -2.042273,0.84004 -2.62274,1.71578 -0.188308,-0.14057 -0.389638,-0.26293 -0.600347,-0.36822 0.139166,0.43346 0.21519,0.89506 0.21519,1.3743 -1.4e-4,0.0924 -0.0032,0.18593 -0.0097,0.2831 z"
   id="path48"
   inkscape:connector-curvature="0" />
<path
   style="fill:#f7931e;stroke-width:0.14000639"
   d="m 45.774108,30.204285 c 0.0064,-0.0975 0.01106,-0.19545 0.01106,-0.29458 0,-2.56001 -2.070555,-4.63519 -4.624691,-4.63519 -2.553997,0 -4.624551,2.07532 -4.624551,4.63519 0,0.0991 0.0046,0.19713 0.01092,0.29458 z"
   id="path50"
   inkscape:connector-curvature="0" />
<path
   style="fill:#89c947;stroke-width:0.14000639"
   d="m 28.679609,31.896825 c -2.031633,-2.03598 -5.069912,-2.66433 -7.740674,-1.6007 -0.02926,0.0118 -0.05544,0.0293 -0.07756,0.0511 -0.02184,0.022 -0.03934,0.0482 -0.05096,0.0777 -0.817077,2.06117 -0.630028,4.33894 0.42506,6.20802 h 9.531635 c -0.965484,-1.2861 -1.620014,-2.81889 -1.849765,-4.48608 -0.077,-0.0849 -0.156107,-0.16829 -0.23773,-0.25005 z"
   id="path52"
   inkscape:connector-curvature="0" />
<path
   style="fill:#d5e962;stroke-width:0.14000639"
   d="m 25.64945,36.632955 h 2.966596 l -2.916193,-2.92277 c -0.409659,-0.41036 -1.074269,-0.41148 -1.484908,-0.002 -0.410639,0.40952 -0.411479,1.07441 -0.0018,1.48491 z"
   id="path54"
   inkscape:connector-curvature="0" />
<path
   style="fill:#ef5050;stroke-width:0.14000639"
   d="m 46.001339,36.632955 c 1.216515,-1.62071 1.941888,-3.6319 1.941888,-5.81166 0,-0.41806 -0.337975,-0.75702 -0.755474,-0.75702 H 29.3613 c -0.417359,0 -0.755195,0.33896 -0.755195,0.75702 0,2.17976 0.725373,4.19095 1.942029,5.81166 z"
   id="path56"
   inkscape:connector-curvature="0" />
<g
   id="g68"
   transform="matrix(0.14000639,0,0,0.14000639,0,-3.8416353)">
	<path
   style="fill:#c0272d"
   d="m 281.15,289.091 v -5.188 c 0,-4.142 -3.357,-7.5 -7.5,-7.5 -4.143,0 -7.5,3.358 -7.5,7.5 v 5.188 z"
   id="path58"
   inkscape:connector-curvature="0" />
	<path
   style="fill:#c0272d"
   d="m 295.539,289.091 h 11.663 c 2.413,-2.943 2.249,-7.293 -0.496,-10.045 l -7.281,-7.298 c -2.925,-2.932 -7.674,-2.939 -10.606,-0.013 -2.933,2.926 -2.938,7.674 -0.013,10.606 z"
   id="path60"
   inkscape:connector-curvature="0" />
	<path
   style="fill:#c0272d"
   d="m 250.579,289.091 6.732,-6.748 c 2.926,-2.932 2.921,-7.681 -0.011,-10.606 -2.932,-2.926 -7.681,-2.921 -10.607,0.011 l -7.282,7.298 c -2.745,2.751 -2.91,7.101 -0.498,10.044 z"
   id="path62"
   inkscape:connector-curvature="0" />
	<path
   style="fill:#c0272d"
   d="M 239.048,268.865 H 228.75 c -4.143,0 -7.5,-3.358 -7.5,-7.5 0,-4.142 3.357,-7.5 7.5,-7.5 h 10.298 c 4.143,0 7.5,3.358 7.5,7.5 0,4.142 -3.358,7.5 -7.5,7.5 z"
   id="path64"
   inkscape:connector-curvature="0" />
	<path
   style="fill:#c0272d"
   d="m 318.006,268.865 h -10.299 c -4.142,0 -7.5,-3.358 -7.5,-7.5 0,-4.142 3.358,-7.5 7.5,-7.5 h 10.299 c 4.143,0 7.5,3.358 7.5,7.5 0,4.142 -3.358,7.5 -7.5,7.5 z"
   id="path66"
   inkscape:connector-curvature="0" />
</g>
<path
   style="fill:#e6e9ed;stroke-width:0.14000639"
   d="m 13.017794,43.873105 c 0.0126,0.003 0.02534,0.005 0.03794,0.005 0.03024,0 0.05992,-0.01 0.08456,-0.0284 0.035,-0.0265 0.05544,-0.0678 0.05544,-0.11158 v -1.77711 c 0,-0.50178 0.408259,-0.91004 0.910042,-0.91004 0.501782,0 0.910041,0.40826 0.910041,0.91004 v 1.77711 c 0,0.0438 0.02044,0.0851 0.05544,0.11158 0.02464,0.0186 0.05432,0.0284 0.08456,0.0284 0.01274,0 0.02548,-0.002 0.03794,-0.005 0.736574,-0.20749 1.605593,-0.31725 2.512695,-0.31725 2.548816,0 4.261094,0.82617 4.261094,1.59789 0,0.0997 -0.03038,0.20399 -0.09044,0.31011 -0.01988,0.0349 -0.02366,0.0767 -0.0105,0.11467 0.01316,0.0379 0.04186,0.0685 0.07896,0.0837 3.263409,1.34518 5.575895,4.19865 6.035256,7.44666 0.006,0.0421 0.0308,0.0793 0.06734,0.10095 0.02184,0.0129 0.04648,0.0195 0.07126,0.0195 0.0168,0 0.0336,-0.003 0.0497,-0.009 l 22.103509,-8.39702 c 0.427719,-0.16241 0.87658,-0.24474 1.334121,-0.24474 0.641089,0 1.275178,0.16535 1.833943,0.47799 0.971645,0.54378 1.644935,1.48168 1.847245,2.57303 l 0.192508,1.03955 c 0.0084,0.0449 0.03794,0.083 0.07966,0.10193 0.01848,0.008 0.03822,0.0126 0.05796,0.0126 0.02478,0 0.04942,-0.006 0.07126,-0.0195 l 7.431539,-4.38696 c 0.638569,-2.27552 0.962264,-4.63491 0.962264,-7.05828 0,-0.4007 -0.324255,-0.72551 -0.724113,-0.72551 H 12.795604 c -0.399858,0 -0.724113,0.32481 -0.724113,0.72551 0,2.23324 0.276092,4.41202 0.818617,6.52108 0.04242,0.0112 0.0861,0.0214 0.127686,0.0332 z"
   id="path70"
   inkscape:connector-curvature="0" />
<path
   style="opacity:0.1;stroke-width:0.14000639;enable-background:new"
   d="m 13.017794,43.873105 c 0.0126,0.003 0.02534,0.005 0.03794,0.005 0.03024,0 0.05992,-0.01 0.08456,-0.0284 0.035,-0.0265 0.05544,-0.0678 0.05544,-0.11158 v -1.77711 c 0,-0.50178 0.408259,-0.91004 0.910042,-0.91004 0.501782,0 0.910041,0.40826 0.910041,0.91004 v 1.77711 c 0,0.0438 0.02044,0.0851 0.05544,0.11158 0.02464,0.0186 0.05432,0.0284 0.08456,0.0284 0.01274,0 0.02548,-0.002 0.03794,-0.005 0.630449,-0.17767 1.358342,-0.28295 2.123757,-0.30969 -0.496183,-2.02281 -0.747494,-4.10891 -0.747494,-6.24457 0,-0.4007 0.324115,-0.72551 0.724113,-0.72551 h -4.498545 c -0.399858,0 -0.724113,0.32481 -0.724113,0.72551 0,2.23324 0.276092,4.41202 0.818617,6.52108 0.04242,0.0112 0.0861,0.0214 0.127686,0.0332 z"
   id="path72"
   inkscape:connector-curvature="0" />
<path
   style="fill:#89c947;stroke-width:0.14000639"
   d="m 14.105644,44.372785 c 0.287573,-0.16142 0.643749,-0.30213 1.050327,-0.41679 v -1.99482 c 0,-0.5799 -0.470001,-1.05004 -1.050047,-1.05004 -0.580047,0 -1.050048,0.47014 -1.050048,1.05004 v 1.99482 c 0.406578,0.11452 0.762334,0.25537 1.049768,0.41679 z"
   id="path74"
   inkscape:connector-curvature="0" />
<path
   style="fill:#ef5050;stroke-width:0.14000639"
   d="m 24.832793,63.858455 -3.792493,0.002 h -0.0014 c -1.805382,-1.4e-4 -3.353433,-1.28315 -3.680768,-3.05102 l -0.03738,-0.20104 c -0.327475,-1.76815 0.65957,-3.51697 2.347067,-4.15819 l 8.472207,-3.21847 c -0.43626,-3.48952 -2.895332,-6.41201 -6.272006,-7.75286 -0.327615,0.55065 -1.455787,1.03003 -2.924734,1.20238 -0.056,0.007 -0.102764,0.0462 -0.118305,0.10052 -0.01554,0.0543 0.0029,0.11257 0.04704,0.14785 0.761355,0.60903 1.239617,1.2511 1.279518,1.71774 0.01456,0.16913 -0.02702,0.30633 -0.127265,0.41946 -0.178509,0.20161 -0.529645,0.30815 -1.015187,0.30815 0,0 0,0 -1.4e-4,0 -0.945323,0 -2.223581,-0.39524 -3.419516,-1.05719 -0.526704,-0.29191 -0.995305,-0.6107 -1.393343,-0.94798 -0.02618,-0.0221 -0.05838,-0.0332 -0.09044,-0.0332 -0.0322,0 -0.0644,0.0111 -0.09044,0.0332 -0.398318,0.33756 -0.866919,0.65649 -1.393063,0.94784 -1.195935,0.66209 -2.474333,1.05733 -3.4196561,1.05733 -0.4856822,0 -0.8366782,-0.10654 -1.0151864,-0.30815 -0.1002445,-0.11313 -0.1419664,-0.25019 -0.1274058,-0.41932 0.040042,-0.46664 0.5183037,-1.10871 1.2793784,-1.71788 0.043962,-0.0353 0.062583,-0.0935 0.047042,-0.14785 -0.015401,-0.0543 -0.062163,-0.0939 -0.1183054,-0.10052 -1.4693759,-0.17281 -2.5976874,-0.65247 -2.9247423,-1.2034 C 2.6120992,46.959125 0,50.371085 0,54.345165 c 0,5.33228 4.7015545,9.65484 10.501039,9.65484 h 14.560104 c 0.157228,0 0.03556,-0.0559 -0.22835,-0.14155 z"
   id="path76"
   inkscape:connector-curvature="0" />
<path
   style="opacity:0.1;stroke-width:0.14000639;enable-background:new"
   d="m 4.5432073,54.345165 c 0,-3.16723 1.6587957,-5.97813 4.2209126,-7.73885 C 7.5441042,46.393365 6.6316826,45.963965 6.3431294,45.477995 2.6120992,46.959125 0,50.371085 0,54.345165 c 0,5.33228 4.7015545,9.65484 10.501039,9.65484 h 4.543347 c -5.7994842,0 -10.5011787,-4.32256 -10.5011787,-9.65484 z"
   id="path78"
   inkscape:connector-curvature="0" />
<path
   style="fill:#368c0e;stroke-width:0.14000639"
   d="m 22.107709,45.153885 c 0,-0.95988 -1.97045,-1.7379 -4.401101,-1.7379 -1.488828,0 -2.804608,0.29219 -3.601104,0.73923 -0.795937,-0.4469 -2.111577,-0.73923 -3.600685,-0.73923 -2.4305106,0 -4.4012405,0.77802 -4.4012405,1.7379 0,0.78768 1.3281006,1.45257 3.1477636,1.66608 -1.1131908,0.89086 -1.6229541,1.82708 -1.1693334,2.33922 0.6010475,0.67861 2.6641813,0.35632 4.6074703,-0.71949 0.545605,-0.30213 1.023727,-0.63115 1.415745,-0.96352 0.392437,0.33251 0.870839,0.66139 1.416024,0.96352 1.943429,1.07581 4.006423,1.39782 4.60733,0.71949 0.453761,-0.51214 -0.05586,-1.44836 -1.169473,-2.33922 1.820923,-0.21351 3.148604,-0.8784 3.148604,-1.66608 z"
   id="path80"
   inkscape:connector-curvature="0" />
<path
   style="fill:#89c947;stroke-width:0.14000639"
   d="m 71.66703,51.371425 -0.281973,-1.52103 c -0.09688,-0.52502 -0.603288,-0.87196 -1.130552,-0.77535 l -10.882836,1.99915 6.948657,-4.64499 c 0.329435,-0.22009 0.481902,-0.60889 0.414139,-0.97809 -0.01918,-0.10248 -0.0553,-0.20301 -0.109065,-0.29863 l -0.786416,-1.39278 c -0.127686,-0.22681 -0.342596,-0.39286 -0.595027,-0.45992 -0.252292,-0.0673 -0.521104,-0.0307 -0.745954,0.1022 l -9.039373,5.33606 1.710038,9.23202 10.368033,1.86321 c 0.258312,0.0465 0.524884,-0.0134 0.737974,-0.16577 0.21323,-0.15246 0.355896,-0.38474 0.394258,-0.64361 l 0.234371,-1.57241 c 0.01624,-0.10822 0.014,-0.21519 -0.005,-0.31711 -0.06832,-0.36976 -0.350716,-0.67819 -0.737133,-0.76682 l -8.155652,-1.87062 10.882976,-1.99929 c 0.527544,-0.0969 0.87574,-0.60091 0.778576,-1.12622 z"
   id="path82"
   inkscape:connector-curvature="0" />
<path
   style="fill:#f7931e;stroke-width:0.14000639"
   d="m 17.220506,60.834465 c 0.339795,1.83464 1.946508,3.1661 3.819794,3.1654 l 32.756874,-0.0126 c 1.152673,-4.2e-4 2.245983,-0.51102 2.983257,-1.39362 0.737553,-0.88246 1.043047,-2.04564 0.833878,-3.17507 l -2.1883,-11.81472 c -0.20931,-1.12915 -0.911442,-2.10723 -1.916548,-2.66978 -1.005105,-0.56255 -2.20902,-0.65089 -3.28623,-0.24193 l -30.605116,11.62655 c -1.75036,0.66517 -2.774647,2.47979 -2.434991,4.31458 z"
   id="path84"
   inkscape:connector-curvature="0" />
<g
   style="opacity:0.1"
   id="g88"
   transform="matrix(0.14000639,0,0,0.14000639,0,-3.8416353)">
	<path
   d="m 122.998,461.951 c 0.372,2.012 0.981,3.926 1.754,5.747 3.225,-5.729 8.405,-10.364 14.944,-12.849 l 228.289,-86.725 c 8.035,-3.051 17.016,-2.391 24.512,1.804 1.575,0.882 3.044,1.908 4.406,3.045 l -1.021,-5.521 c -1.495,-8.065 -6.51,-15.051 -13.689,-19.069 -7.179,-4.018 -15.778,-4.649 -23.472,-1.728 l -218.598,83.043 c -12.502,4.751 -19.818,17.712 -17.392,30.817 z"
   id="path86"
   inkscape:connector-curvature="0" />
</g>
<g
   id="g100"
   transform="matrix(0.14000639,0,0,0.14000639,0,-3.8416353)">
	<path
   style="fill:#ffc502"
   d="m 370.837,449.389 c -0.778,-4.069 -4.716,-6.736 -8.775,-5.957 -4.068,0.778 -6.735,4.707 -5.957,8.775 l 6.174,32.272 15.271,-0.006 z"
   id="path90"
   inkscape:connector-curvature="0" />
	<path
   style="fill:#ffc502"
   d="m 330.183,458.282 c -0.768,-4.071 -4.688,-6.747 -8.76,-5.981 -4.07,0.767 -6.748,4.689 -5.98,8.759 l 4.418,23.435 15.263,-0.006 z"
   id="path92"
   inkscape:connector-curvature="0" />
	<path
   style="fill:#ffc502"
   d="m 290.439,401.794 c 0.857,3.402 3.912,5.67 7.268,5.67 0.606,0 1.223,-0.074 1.837,-0.229 4.017,-1.011 6.453,-5.087 5.442,-9.105 l -7.139,-28.35 -14.118,5.364 z"
   id="path94"
   inkscape:connector-curvature="0" />
	<path
   style="fill:#ffc502"
   d="m 251.413,451.746 c -0.735,-4.076 -4.632,-6.786 -8.712,-6.05 -4.076,0.735 -6.785,4.636 -6.05,8.712 l 5.431,30.117 15.241,-0.006 z"
   id="path96"
   inkscape:connector-curvature="0" />
	<path
   style="fill:#ffc502"
   d="m 175.752,437.728 c 0.741,3.535 3.858,5.961 7.332,5.961 0.511,0 1.029,-0.052 1.549,-0.162 4.054,-0.85 6.649,-4.827 5.799,-8.88 l -4.677,-22.283 -14.194,5.392 z"
   id="path98"
   inkscape:connector-curvature="0" />
</g>
<g
   id="g102"
   transform="matrix(0.14000639,0,0,0.14000639,0,-3.8416353)">
</g>
<g
   id="g104"
   transform="matrix(0.14000639,0,0,0.14000639,0,-3.8416353)">
</g>
<g
   id="g106"
   transform="matrix(0.14000639,0,0,0.14000639,0,-3.8416353)">
</g>
<g
   id="g108"
   transform="matrix(0.14000639,0,0,0.14000639,0,-3.8416353)">
</g>
<g
   id="g110"
   transform="matrix(0.14000639,0,0,0.14000639,0,-3.8416353)">
</g>
<g
   id="g112"
   transform="matrix(0.14000639,0,0,0.14000639,0,-3.8416353)">
</g>
<g
   id="g114"
   transform="matrix(0.14000639,0,0,0.14000639,0,-3.8416353)">
</g>
<g
   id="g116"
   transform="matrix(0.14000639,0,0,0.14000639,0,-3.8416353)">
</g>
<g
   id="g118"
   transform="matrix(0.14000639,0,0,0.14000639,0,-3.8416353)">
</g>
<g
   id="g120"
   transform="matrix(0.14000639,0,0,0.14000639,0,-3.8416353)">
</g>
<g
   id="g122"
   transform="matrix(0.14000639,0,0,0.14000639,0,-3.8416353)">
</g>
<g
   id="g124"
   transform="matrix(0.14000639,0,0,0.14000639,0,-3.8416353)">
</g>
<g
   id="g126"
   transform="matrix(0.14000639,0,0,0.14000639,0,-3.8416353)">
</g>
<g
   id="g128"
   transform="matrix(0.14000639,0,0,0.14000639,0,-3.8416353)">
</g>
<g
   id="g130"
   transform="matrix(0.14000639,0,0,0.14000639,0,-3.8416353)">
</g>
</svg>