<?xml version="1.0" encoding="UTF-8" standalone="no"?>
<!-- Generator: Adobe Illustrator 19.0.0, SVG Export Plug-In . SVG Version: 6.00 Build 0)  -->

<svg
   xmlns:dc="http://purl.org/dc/elements/1.1/"
   xmlns:cc="http://creativecommons.org/ns#"
   xmlns:rdf="http://www.w3.org/1999/02/22-rdf-syntax-ns#"
   xmlns:svg="http://www.w3.org/2000/svg"
   xmlns="http://www.w3.org/2000/svg"
   xmlns:sodipodi="http://sodipodi.sourceforge.net/DTD/sodipodi-0.dtd"
   xmlns:inkscape="http://www.inkscape.org/namespaces/inkscape"
   version="1.1"
   id="Layer_1"
   x="0px"
   y="0px"
   viewBox="0 0 72.748215 64"
   xml:space="preserve"
   width="72.748215"
   height="64"
   sodipodi:docname="fitness.svg"
   inkscape:version="0.92.4 (5da689c313, 2019-01-14)"><metadata
   id="metadata29"><rdf:RDF><cc:Work
       rdf:about=""><dc:format>image/svg+xml</dc:format><dc:type
         rdf:resource="http://purl.org/dc/dcmitype/StillImage" /><dc:title></dc:title></cc:Work></rdf:RDF></metadata><defs
   id="defs27" /><sodipodi:namedview
   pagecolor="#ffffff"
   bordercolor="#666666"
   borderopacity="1"
   objecttolerance="10"
   gridtolerance="10"
   guidetolerance="10"
   inkscape:pageopacity="0"
   inkscape:pageshadow="2"
   inkscape:window-width="1920"
   inkscape:window-height="1001"
   id="namedview25"
   showgrid="false"
   fit-margin-top="0"
   fit-margin-left="0"
   fit-margin-right="0"
   fit-margin-bottom="0"
   inkscape:zoom="2.6074563"
   inkscape:cx="-107.88364"
   inkscape:cy="52.52135"
   inkscape:window-x="-9"
   inkscape:window-y="-9"
   inkscape:window-maximized="1"
   inkscape:current-layer="Layer_1" />
<g
   id="g22"
   transform="matrix(0.14208636,0,0,0.14208636,0,-4.3740856)">
	<path
   style="fill:#ffcebf"
   d="m 386.902,322.816 c -44.7,81.599 -125.003,138.6 -216.204,156.899 l -6.899,1.5 -8.101,-3.898 C 67.8,406.816 13.198,306.017 2.102,195.617 0.601,181.816 0,167.717 0,153.616 v -17.999 c 0,-31.201 13.799,-60.3 37.5,-80.4 23.701,-20.101 55.203,-28.2 86.4,-22.8 43.502,7.5 78.3,43.5 84.899,87.299 4.2,27.001 -2.399,54.3 -17.999,75.901 -2.399,3.9 -5.402,7.5 -8.397,10.8 14.7,15 24.298,36.301 26.997,60 1.802,17.999 -0.601,36 -6.599,52.8 32.102,-4.2 64.102,-16.8 88.997,-38.101 z"
   id="path2"
   inkscape:connector-curvature="0" />
	<path
   style="fill:#ffb99c"
   d="m 291.797,281.116 95.105,41.7 c -44.7,81.599 -125.003,138.6 -216.204,156.899 l -6.899,1.5 -8.101,-3.898 C 67.8,406.816 13.198,306.017 2.102,195.617 H 190.8 c -2.399,3.9 -5.402,7.5 -8.397,10.8 14.7,15 24.298,36.301 26.997,60 1.802,17.999 -0.601,36 -6.599,52.8 32.101,-4.201 64.101,-16.8 88.996,-38.101 z"
   id="path4"
   inkscape:connector-curvature="0" />
	<path
   style="fill:#61729b"
   d="m 377,60.617 c -74.399,0 -135,60.599 -135,135 0,74.399 60.601,135 135,135 74.399,0 135,-60.601 135,-135 0,-74.401 -60.601,-135 -135,-135 z"
   id="path6"
   inkscape:connector-curvature="0" />
	<path
   style="fill:#47568c"
   d="m 512,195.617 c 0,74.399 -60.601,135 -135,135 -74.399,0 -135,-60.601 -135,-135 z"
   id="path8"
   inkscape:connector-curvature="0" />
	
		<rect
   x="317.383"
   y="143.49899"
   transform="matrix(0.7071,0.7071,-0.7071,0.7071,211.6236,-193.9092)"
   style="fill:#47568c"
   width="44.994999"
   height="29.997"
   id="rect10" />
	
		<rect
   x="391.62201"
   y="217.73801"
   transform="matrix(0.7071,0.7071,-0.7071,0.7071,285.8618,-224.6597)"
   style="fill:#2c3b73"
   width="44.994999"
   height="29.997"
   id="rect12" />
	
		<rect
   x="324.88199"
   y="210.23801"
   transform="matrix(0.7071,0.7071,-0.7071,0.7071,264.118,-172.1653)"
   style="fill:#2c3b73"
   width="29.997"
   height="44.994999"
   id="rect14" />
	
		<rect
   x="399.121"
   y="136"
   transform="matrix(0.7071,0.7071,-0.7071,0.7071,233.3674,-246.4036)"
   style="fill:#47568c"
   width="29.997"
   height="44.994999"
   id="rect16" />
	<path
   style="fill:#47568c"
   d="m 377,150.617 c -24.902,0 -45,20.099 -45,45 0,24.899 20.098,45 45,45 24.902,0 45,-20.101 45,-45 0,-24.901 -20.098,-45 -45,-45 z"
   id="path18"
   inkscape:connector-curvature="0" />
	<path
   style="fill:#2c3b73"
   d="m 422,195.617 c 0,24.899 -20.098,45 -45,45 -24.902,0 -45,-20.101 -45,-45 z"
   id="path20"
   inkscape:connector-curvature="0" />
</g>















</svg>