<?xml version="1.0" encoding="UTF-8" standalone="no"?>
<!-- Generator: Adobe Illustrator 19.0.0, SVG Export Plug-In . SVG Version: 6.00 Build 0)  -->

<svg
   xmlns:dc="http://purl.org/dc/elements/1.1/"
   xmlns:cc="http://creativecommons.org/ns#"
   xmlns:rdf="http://www.w3.org/1999/02/22-rdf-syntax-ns#"
   xmlns:svg="http://www.w3.org/2000/svg"
   xmlns="http://www.w3.org/2000/svg"
   xmlns:sodipodi="http://sodipodi.sourceforge.net/DTD/sodipodi-0.dtd"
   xmlns:inkscape="http://www.inkscape.org/namespaces/inkscape"
   version="1.1"
   id="Capa_1"
   x="0px"
   y="0px"
   viewBox="-0.2 0 60.377361 64"
   xml:space="preserve"
   sodipodi:docname="idea.svg"
   width="60.377361"
   height="64"
   inkscape:version="0.92.4 (5da689c313, 2019-01-14)"><metadata
   id="metadata59"><rdf:RDF><cc:Work
       rdf:about=""><dc:format>image/svg+xml</dc:format><dc:type
         rdf:resource="http://purl.org/dc/dcmitype/StillImage" /><dc:title></dc:title></cc:Work></rdf:RDF></metadata><defs
   id="defs57" /><sodipodi:namedview
   pagecolor="#ffffff"
   bordercolor="#666666"
   borderopacity="1"
   objecttolerance="10"
   gridtolerance="10"
   guidetolerance="10"
   inkscape:pageopacity="0"
   inkscape:pageshadow="2"
   inkscape:window-width="1920"
   inkscape:window-height="1001"
   id="namedview55"
   showgrid="false"
   viewbox-x="-0.2"
   fit-margin-top="0"
   fit-margin-left="0"
   fit-margin-right="0"
   fit-margin-bottom="0"
   inkscape:zoom="4.4528302"
   inkscape:cx="24.8"
   inkscape:cy="26.500002"
   inkscape:window-x="-9"
   inkscape:window-y="-9"
   inkscape:window-maximized="1"
   inkscape:current-layer="Capa_1" />
<path
   style="fill:#efce4a;stroke-width:1.20754719"
   d="m 29.988679,10.867925 c -10.671094,0 -19.320754,8.650867 -19.320754,19.320754 0,8.560302 5.57283,15.808 13.283018,18.345057 v 11.843622 h 2.415095 V 64 h 7.245283 v -3.622642 h 2.415094 V 48.533736 c 7.710189,-2.537057 13.283019,-9.784755 13.283019,-18.345057 0,-10.669887 -8.64966,-19.320754 -19.320755,-19.320754 z"
   id="path2"
   inkscape:connector-curvature="0" />
<g
   id="g18"
   transform="matrix(1.2075472,0,0,1.2075472,-2.0113208,0)">
	<path
   style="fill:#efce4a"
   d="m 26.5,0 c -0.553,0 -1,0.447 -1,1 v 4 c 0,0.553 0.447,1 1,1 0.553,0 1,-0.447 1,-1 V 1 c 0,-0.553 -0.447,-1 -1,-1 z"
   id="path4"
   inkscape:connector-curvature="0" />
	<path
   style="fill:#efce4a"
   d="m 50.5,24 h -4 c -0.553,0 -1,0.447 -1,1 0,0.553 0.447,1 1,1 h 4 c 0.553,0 1,-0.447 1,-1 0,-0.553 -0.447,-1 -1,-1 z"
   id="path6"
   inkscape:connector-curvature="0" />
	<path
   style="fill:#efce4a"
   d="m 6.5,24 h -4 c -0.553,0 -1,0.447 -1,1 0,0.553 0.447,1 1,1 h 4 c 0.553,0 1,-0.447 1,-1 0,-0.553 -0.447,-1 -1,-1 z"
   id="path8"
   inkscape:connector-curvature="0" />
	<path
   style="fill:#efce4a"
   d="m 42.764,7.322 -2.828,2.828 c -0.391,0.391 -0.391,1.023 0,1.414 0.195,0.195 0.451,0.293 0.707,0.293 0.256,0 0.512,-0.098 0.707,-0.293 l 2.828,-2.828 c 0.391,-0.391 0.391,-1.023 0,-1.414 -0.391,-0.391 -1.024,-0.39 -1.414,0 z"
   id="path10"
   inkscape:connector-curvature="0" />
	<path
   style="fill:#efce4a"
   d="m 11.65,38.436 -2.828,2.828 c -0.391,0.391 -0.391,1.023 0,1.414 0.195,0.195 0.451,0.293 0.707,0.293 0.256,0 0.512,-0.098 0.707,-0.293 l 2.828,-2.828 c 0.391,-0.391 0.391,-1.023 0,-1.414 -0.391,-0.391 -1.023,-0.391 -1.414,0 z"
   id="path12"
   inkscape:connector-curvature="0" />
	<path
   style="fill:#efce4a"
   d="m 41.35,38.436 c -0.391,-0.391 -1.023,-0.391 -1.414,0 -0.391,0.391 -0.391,1.023 0,1.414 l 2.828,2.828 c 0.195,0.195 0.451,0.293 0.707,0.293 0.256,0 0.512,-0.098 0.707,-0.293 0.391,-0.391 0.391,-1.023 0,-1.414 z"
   id="path14"
   inkscape:connector-curvature="0" />
	<path
   style="fill:#efce4a"
   d="m 10.236,7.322 c -0.391,-0.391 -1.023,-0.391 -1.414,0 -0.391,0.391 -0.391,1.023 0,1.414 l 2.828,2.828 c 0.195,0.195 0.451,0.293 0.707,0.293 0.256,0 0.512,-0.098 0.707,-0.293 0.391,-0.391 0.391,-1.023 0,-1.414 z"
   id="path16"
   inkscape:connector-curvature="0" />
</g>
<path
   style="fill:#f7e6a1;stroke-width:1.20754719"
   d="m 16.70566,31.396226 c -0.667773,0 -1.207547,-0.539773 -1.207547,-1.207547 0,-7.990339 6.500227,-14.490566 14.490566,-14.490566 0.667774,0 1.207547,0.539774 1.207547,1.207547 0,0.667774 -0.539773,1.207548 -1.207547,1.207548 -6.658415,0 -12.075471,5.417056 -12.075471,12.075471 0,0.667774 -0.539774,1.207547 -1.207548,1.207547 z"
   id="path20"
   inkscape:connector-curvature="0" />
<polygon
   style="fill:#556080"
   points="29.5,50 31.5,50 31.5,43 21.5,43 21.5,50 23.5,50 23.5,53 29.5,53 "
   id="polygon22"
   transform="matrix(1.2075472,0,0,1.2075472,-2.0113208,0)" />
<g
   id="g24"
   transform="matrix(1.2075472,0,0,1.2075472,-2.0113208,0)">
</g>
<g
   id="g26"
   transform="matrix(1.2075472,0,0,1.2075472,-2.0113208,0)">
</g>
<g
   id="g28"
   transform="matrix(1.2075472,0,0,1.2075472,-2.0113208,0)">
</g>
<g
   id="g30"
   transform="matrix(1.2075472,0,0,1.2075472,-2.0113208,0)">
</g>
<g
   id="g32"
   transform="matrix(1.2075472,0,0,1.2075472,-2.0113208,0)">
</g>
<g
   id="g34"
   transform="matrix(1.2075472,0,0,1.2075472,-2.0113208,0)">
</g>
<g
   id="g36"
   transform="matrix(1.2075472,0,0,1.2075472,-2.0113208,0)">
</g>
<g
   id="g38"
   transform="matrix(1.2075472,0,0,1.2075472,-2.0113208,0)">
</g>
<g
   id="g40"
   transform="matrix(1.2075472,0,0,1.2075472,-2.0113208,0)">
</g>
<g
   id="g42"
   transform="matrix(1.2075472,0,0,1.2075472,-2.0113208,0)">
</g>
<g
   id="g44"
   transform="matrix(1.2075472,0,0,1.2075472,-2.0113208,0)">
</g>
<g
   id="g46"
   transform="matrix(1.2075472,0,0,1.2075472,-2.0113208,0)">
</g>
<g
   id="g48"
   transform="matrix(1.2075472,0,0,1.2075472,-2.0113208,0)">
</g>
<g
   id="g50"
   transform="matrix(1.2075472,0,0,1.2075472,-2.0113208,0)">
</g>
<g
   id="g52"
   transform="matrix(1.2075472,0,0,1.2075472,-2.0113208,0)">
</g>
</svg>